<svg xmlns="http://www.w3.org/2000/svg" viewBox="0 0 355.91 392.1"><title>Asset 11</title><g id="8177f669-2586-4148-bedc-27c2f4064a88" data-name="Layer 2"><g id="48301ce7-5903-4b0a-b45a-dd16b0ea28ef" data-name="Planet"><path d="M44.38,123.16a168,168,0,0,0-13.47,22.12L19.7,160.84A8.84,8.84,0,0,1,21.45,168h0a165.26,165.26,0,0,0-7.57,35.48c-4.3,7-8.32,12.31-8.32,12.31l18.48,80.88c6.77,2.93,13.12,10.54,16.65,15.36.88,1.33,1.79,2.64,2.71,3.95l.16.26h0a163.67,163.67,0,0,0,15.2,18.46,1.72,1.72,0,0,0,.56.61l0,0q1.6,1.67,3.25,3.29a28.69,28.69,0,0,1,4.19,7.38c.19,3,12.87,12.4,29.52,21.69,16,8.9,30.07,14.67,33.58,13.88,2-.31,10.38.15,10.38.15h0a166.22,166.22,0,0,0,56.37,3.61h0l.07,0,.8-.09c1.64-.08,5.49.33,10.78,4.61l12.27-8.85a165.83,165.83,0,0,0,53.82-24.78l7.94,2.29s.93-7.8,12.08-18.81h0a167.93,167.93,0,0,0,17.26-19.54l0,.09s44.55-33.92,32.43-81.51h0a166.85,166.85,0,0,0,1-17.71l0-.23c1.24-17.15,7.9-23.62,7.9-23.62L337.2,169.73a165.2,165.2,0,0,0-35.3-61.22L289.54,87.08c-5.88.61-16.25-4.31-23.4-8.2q-3.81-2.35-7.7-4.48l0,0h0A166.18,166.18,0,0,0,82.93,84.82h0A15.47,15.47,0,0,1,72.9,87L61.09,103.39A167.75,167.75,0,0,0,44.38,123.16Z" style="fill:#fab0bf"/><path d="M239.74,360.37c17.72-8,34.25-10.88,40.37-7.57a4.53,4.53,0,0,1,2.15,2.15c2.84,6.29-11.61,18.93-32.26,28.23s-39.69,11.72-42.52,5.42a4.76,4.76,0,0,1-.16-3.21C209.08,378.61,222.17,368.28,239.74,360.37Z" style="fill:#fee6ee"/><path d="M209.16,381.68c4.48-6.5,16-14.74,30.58-21.31,15.13-6.8,29.39-9.93,37-8.63a10.52,10.52,0,0,1,3.33,1.06c-1.75,6.78-14.84,17.11-32.41,25-17.73,8-34.26,10.89-40.38,7.57A11.93,11.93,0,0,1,209.16,381.68Z" style="fill:#b58aa0"/><path d="M209.16,381.68c4.48-6.5,16-14.74,30.58-21.31,15.13-6.8,29.39-9.93,37-8.63-4.48,6.5-16,14.74-30.57,21.31C231.07,379.85,216.82,383,209.16,381.68Z" style="fill:#372744"/><path d="M278.14,92a11.14,11.14,0,0,1,3.52-3.42c12.3-7.41,37.4,11.71,56,42.7s23.81,62.12,11.51,69.53a11.34,11.34,0,0,1-5,1.55c-13.28,1.06-34.67-17-51.07-44.26C276.63,130.62,270.71,103.06,278.14,92Z" style="fill:#fee6ee"/><path d="M278.14,92c13.28-1.07,34.67,17,51.07,44.25,16.54,27.47,22.46,55,15,66.11a18.27,18.27,0,0,1-6.42-.77c-13.11-3.74-30.7-20.29-44.65-43.49-15-24.9-21.26-49.89-16.76-62.58A15.59,15.59,0,0,1,278.14,92Z" style="fill:#b58aa0"/><path d="M276.41,95.51c13.11,3.74,30.69,20.29,44.65,43.48,15,24.91,21.26,49.9,16.76,62.59-13.11-3.74-30.7-20.29-44.65-43.49C278.17,133.19,271.91,108.2,276.41,95.51Z" style="fill:#372744"/><path d="M149.14,115.37c16.31-2.64,31.15,2.69,35.78,12.19a16.23,16.23,0,0,1-1,3.74c-3.45,9-14.77,16.81-29.12,19.14s-27.56-1.52-33.67-8.94a16,16,0,0,1-2.1-3.25C120.44,127.78,132.83,118,149.14,115.37Z" style="fill:#b58aa0"/><ellipse cx="152.55" cy="136.4" rx="31.81" ry="14.23" transform="translate(-19.89 26.22) rotate(-9.23)" style="fill:#372744"/><path d="M42.24,121C56.93,100.61,70.66,85.4,72.9,87c.27.2.36.64.28,1.31a7.41,7.41,0,0,1-.28,1.25c-1.74,5.89-10.63,20.74-22.55,37.28S27.16,156.52,22.13,160a6.92,6.92,0,0,1-1.1.66c-.61.29-1.06.35-1.33.15C17.46,159.23,27.55,141.39,42.24,121Z" style="fill:#fee6ee"/><path d="M44.67,122.76C56.59,106.22,67.86,93.08,72.9,89.57a29.88,29.88,0,0,1-1.75,4.29c-3.48,7.32-11.15,19.6-20.8,33-10.06,14-19.67,25.5-25.44,30.87A26,26,0,0,1,22.13,160C23.87,154.14,32.76,139.29,44.67,122.76Z" style="fill:#b58aa0"/><path d="M45.71,124.74c10.06-14,19.67-25.51,25.44-30.88-3.48,7.32-11.15,19.6-20.8,33-10.06,14-19.67,25.5-25.44,30.87C28.4,150.41,36.07,138.12,45.71,124.74Z" style="fill:#372744"/><path d="M97.24,256.78a40.74,40.74,0,0,1,4.58-5.34c16.16-15.91,43.86-17.08,65.2-1.7s29,42,19,62.39a40.92,40.92,0,0,1-3.61,6c-15,20.83-46.24,24-69.78,7S82.23,277.61,97.24,256.78Z" style="fill:#b58aa0"/><ellipse cx="143.93" cy="281.79" rx="39.5" ry="51.91" transform="translate(-168.83 233.83) rotate(-54.23)" style="fill:#372744"/><path d="M16.27,207a14.87,14.87,0,0,1,2.7-.43c13.55-.91,28.79,16.48,35.07,40.78,5.64,21.89,2.21,42.39-7.52,50.45a15.42,15.42,0,0,1-6,3.14,16.73,16.73,0,0,1-10.93-1.12c-11-4.76-21.81-19.78-26.83-39.23C-4,234.67,2.1,210.68,16.27,207Z" style="fill:#fee6ee"/><path d="M19,206.59a16.21,16.21,0,0,1,4.27.3C35.6,209.37,48.42,225.6,54,247.37c5.37,20.87,2.5,40.47-6.21,49.24a16.46,16.46,0,0,1-1.31,1.21C33,298.74,17.73,281.35,11.45,257,5.81,235.15,9.25,214.65,19,206.59Z" style="fill:#b58aa0"/><path d="M23.24,206.89C35.6,209.37,48.42,225.6,54,247.37c5.37,20.87,2.5,40.47-6.21,49.24-12.35-2.47-25.17-18.7-30.79-40.48C11.66,235.26,14.53,215.66,23.24,206.89Z" style="fill:#372744"/><path d="M273.35,210a10.43,10.43,0,0,1,1.62-.85c8.16.5,16.35,10.69,19.09,24.42,2.79,14.09-1.14,26.93-8.88,30.12a11.17,11.17,0,0,1-3.37-.75c-6.95-2.64-13.36-11.83-15.71-23.67C263.5,226.18,266.71,214.19,273.35,210Z" style="fill:#b58aa0"/><path d="M273.35,210c6.95,2.64,13.35,11.83,15.71,23.66,2.59,13.08-.6,25.06-7.25,29.28-6.95-2.64-13.36-11.83-15.71-23.67C263.5,226.18,266.71,214.19,273.35,210Z" style="fill:#372744"/><path d="M129.77,225.24c5.15,0,5.16-8,0-8s-5.15,8,0,8Z" style="fill:#b58aa0"/><path d="M149.92,227.94c9.65,0,9.66-15,0-15s-9.67,15,0,15Z" style="fill:#b58aa0"/><path d="M138.56,213.9c3.22,0,3.22-5,0-5s-3.22,5,0,5Z" style="fill:#b58aa0"/><path d="M280.14,202.78c3.21,0,3.22-5,0-5s-3.23,5,0,5Z" style="fill:#b58aa0"/><path d="M178.74,62.51c3.22,0,3.22-5,0-5s-3.22,5,0,5Z" style="fill:#b58aa0"/><path d="M267.36,207.83c5.15,0,5.16-8,0-8s-5.15,8,0,8Z" style="fill:#b58aa0"/><path d="M208.67,373.11c5.15,0,5.16-8,0-8s-5.15,8,0,8Z" style="fill:#b58aa0"/><path d="M168.37,70.15c5.14,0,5.15-8,0-8s-5.16,8,0,8Z" style="fill:#b58aa0"/><line x1="172.39" y1="3.74" x2="172.39" y2="57.67" style="fill:none;stroke:#372744;stroke-linecap:round;stroke-miterlimit:10;stroke-width:4.493859529495239px"/><circle cx="172.39" cy="3.74" r="3.74" style="fill:#372744"/><path d="M173.9,7.49s9.72,4.49,15,1.5,16.48.75,16.48.75-1.5,16.47,0,17.22-10.49-5.24-15.73,0-15.73,0-15.73,0Z" style="fill:#fee6ee"/></g></g></svg>