<svg xmlns="http://www.w3.org/2000/svg" viewBox="0 0 1600 800.04"><title>Asset 8</title><g id="25bf8d83-8147-4745-bcdb-79c93a6e13af" data-name="Layer 2"><g id="ea74cba1-b204-40bf-ab7c-d1bb1ea12b12" data-name="Layer 4"><polygon points="1285.45 2.75 1283.17 6.83 1285.24 11.01 1280.66 10.11 1277.32 13.37 1276.76 8.73 1272.63 6.56 1276.87 4.6 1277.65 0 1280.83 3.42 1285.45 2.75" style="fill:#fee6ee"/><polygon points="1489.51 267.08 1485.51 269.5 1485.24 274.16 1481.71 271.11 1477.19 272.29 1479 267.99 1476.48 264.06 1481.13 264.45 1484.09 260.84 1485.16 265.38 1489.51 267.08" style="fill:#fee6ee"/><polygon points="1212.82 389.4 1210.54 393.48 1212.61 397.66 1208.03 396.76 1204.69 400.02 1204.13 395.38 1200 393.21 1204.24 391.25 1205.02 386.65 1208.2 390.07 1212.82 389.4" style="fill:#fee6ee"/><polygon points="1281.13 229.72 1283.9 237.38 1291.78 239.43 1285.36 244.43 1285.84 252.56 1279.1 248 1271.52 250.97 1273.77 243.15 1268.61 236.85 1276.74 236.58 1281.13 229.72" style="fill:#fee6ee"/><polygon points="1600 105.54 1596.03 112.65 1599.64 119.94 1591.65 118.37 1585.83 124.05 1584.86 115.97 1577.65 112.19 1585.04 108.77 1586.41 100.74 1591.94 106.71 1600 105.54" style="fill:#fee6ee"/><polygon points="1285.45 402.77 1283.17 406.85 1285.24 411.03 1280.66 410.13 1277.32 413.39 1276.76 408.75 1272.63 406.58 1276.87 404.62 1277.65 400.02 1280.83 403.44 1285.45 402.77" style="fill:#fee6ee"/><polygon points="1489.51 667.1 1485.51 669.52 1485.24 674.18 1481.71 671.13 1477.19 672.31 1479 668.01 1476.48 664.08 1481.13 664.47 1484.09 660.86 1485.16 665.4 1489.51 667.1" style="fill:#fee6ee"/><polygon points="1212.82 789.42 1210.54 793.5 1212.61 797.68 1208.03 796.78 1204.69 800.04 1204.13 795.4 1200 793.24 1204.24 791.27 1205.02 786.67 1208.2 790.1 1212.82 789.42" style="fill:#fee6ee"/><polygon points="1281.13 629.75 1283.9 637.4 1291.78 639.45 1285.36 644.45 1285.84 652.58 1279.1 648.02 1271.52 650.99 1273.77 643.16 1268.61 636.88 1276.74 636.6 1281.13 629.75" style="fill:#fee6ee"/><polygon points="1600 505.56 1596.03 512.67 1599.64 519.96 1591.65 518.39 1585.83 524.07 1584.86 515.99 1577.65 512.21 1585.04 508.79 1586.41 500.76 1591.94 506.73 1600 505.56" style="fill:#fee6ee"/><polygon points="885.45 2.75 883.17 6.83 885.24 11.01 880.66 10.11 877.32 13.37 876.76 8.73 872.63 6.56 876.87 4.6 877.65 0 880.83 3.42 885.45 2.75" style="fill:#fee6ee"/><polygon points="1089.51 267.08 1085.51 269.5 1085.24 274.16 1081.71 271.11 1077.19 272.29 1079 267.99 1076.48 264.06 1081.13 264.45 1084.09 260.84 1085.16 265.38 1089.51 267.08" style="fill:#fee6ee"/><polygon points="812.82 389.4 810.54 393.48 812.61 397.66 808.03 396.76 804.69 400.02 804.13 395.38 800 393.21 804.24 391.25 805.02 386.65 808.2 390.07 812.82 389.4" style="fill:#fee6ee"/><polygon points="881.13 229.72 883.9 237.38 891.78 239.43 885.36 244.43 885.84 252.56 879.1 248 871.52 250.97 873.77 243.15 868.61 236.85 876.74 236.58 881.13 229.72" style="fill:#fee6ee"/><polygon points="1200 105.54 1196.03 112.65 1199.64 119.94 1191.65 118.37 1185.83 124.05 1184.86 115.97 1177.65 112.19 1185.04 108.77 1186.41 100.74 1191.94 106.71 1200 105.54" style="fill:#fee6ee"/><polygon points="885.45 402.77 883.17 406.85 885.24 411.03 880.66 410.13 877.32 413.39 876.76 408.75 872.63 406.58 876.87 404.62 877.65 400.02 880.83 403.44 885.45 402.77" style="fill:#fee6ee"/><polygon points="1089.51 667.1 1085.51 669.52 1085.24 674.18 1081.71 671.13 1077.19 672.31 1079 668.01 1076.48 664.08 1081.13 664.47 1084.09 660.86 1085.16 665.4 1089.51 667.1" style="fill:#fee6ee"/><polygon points="812.82 789.42 810.54 793.5 812.61 797.68 808.03 796.78 804.69 800.04 804.13 795.4 800 793.24 804.24 791.27 805.02 786.67 808.2 790.1 812.82 789.42" style="fill:#fee6ee"/><polygon points="881.13 629.75 883.9 637.4 891.78 639.45 885.36 644.45 885.84 652.58 879.1 648.02 871.52 650.99 873.77 643.16 868.61 636.88 876.74 636.6 881.13 629.75" style="fill:#fee6ee"/><polygon points="1200 505.56 1196.03 512.67 1199.64 519.96 1191.65 518.39 1185.83 524.07 1184.86 515.99 1177.65 512.21 1185.04 508.79 1186.41 500.76 1191.94 506.73 1200 505.56" style="fill:#fee6ee"/><polygon points="485.45 2.75 483.17 6.83 485.24 11.01 480.66 10.11 477.32 13.37 476.76 8.73 472.63 6.56 476.87 4.6 477.65 0 480.83 3.42 485.45 2.75" style="fill:#fee6ee"/><polygon points="689.51 267.08 685.51 269.5 685.24 274.16 681.71 271.11 677.19 272.29 679 267.99 676.48 264.06 681.13 264.45 684.09 260.84 685.16 265.38 689.51 267.08" style="fill:#fee6ee"/><polygon points="412.82 389.4 410.54 393.48 412.61 397.66 408.03 396.76 404.69 400.02 404.13 395.38 400 393.21 404.24 391.25 405.02 386.65 408.2 390.07 412.82 389.4" style="fill:#fee6ee"/><polygon points="481.13 229.72 483.9 237.38 491.78 239.43 485.36 244.43 485.84 252.56 479.1 248 471.52 250.97 473.77 243.15 468.61 236.85 476.74 236.58 481.13 229.72" style="fill:#fee6ee"/><polygon points="800 105.54 796.03 112.65 799.64 119.94 791.65 118.37 785.83 124.05 784.86 115.97 777.65 112.19 785.04 108.77 786.41 100.74 791.95 106.71 800 105.54" style="fill:#fee6ee"/><polygon points="485.45 402.77 483.17 406.85 485.24 411.03 480.66 410.13 477.32 413.39 476.76 408.75 472.63 406.58 476.87 404.62 477.65 400.02 480.83 403.44 485.45 402.77" style="fill:#fee6ee"/><polygon points="689.51 667.1 685.51 669.52 685.24 674.18 681.71 671.13 677.19 672.31 679 668.01 676.48 664.08 681.13 664.47 684.09 660.86 685.16 665.4 689.51 667.1" style="fill:#fee6ee"/><polygon points="412.82 789.42 410.54 793.5 412.61 797.68 408.03 796.78 404.69 800.04 404.13 795.4 400 793.24 404.24 791.27 405.02 786.67 408.2 790.1 412.82 789.42" style="fill:#fee6ee"/><polygon points="481.13 629.75 483.9 637.4 491.78 639.45 485.36 644.45 485.84 652.58 479.1 648.02 471.52 650.99 473.77 643.16 468.61 636.88 476.74 636.6 481.13 629.75" style="fill:#fee6ee"/><polygon points="800 505.56 796.03 512.67 799.64 519.96 791.65 518.39 785.83 524.07 784.86 515.99 777.65 512.21 785.04 508.79 786.41 500.76 791.95 506.73 800 505.56" style="fill:#fee6ee"/><polygon points="85.45 2.75 83.17 6.83 85.24 11.01 80.66 10.11 77.32 13.37 76.76 8.73 72.63 6.56 76.87 4.6 77.65 0 80.83 3.42 85.45 2.75" style="fill:#fee6ee"/><polygon points="289.51 267.08 285.51 269.5 285.24 274.16 281.71 271.11 277.19 272.29 279 267.99 276.48 264.06 281.13 264.45 284.09 260.84 285.16 265.38 289.51 267.08" style="fill:#fee6ee"/><polygon points="12.82 389.4 10.54 393.48 12.61 397.66 8.03 396.76 4.69 400.02 4.13 395.38 0 393.21 4.24 391.25 5.02 386.65 8.2 390.07 12.82 389.4" style="fill:#fee6ee"/><polygon points="81.13 229.72 83.91 237.38 91.78 239.43 85.36 244.43 85.84 252.56 79.1 248 71.52 250.97 73.77 243.15 68.61 236.85 76.74 236.58 81.13 229.72" style="fill:#fee6ee"/><polygon points="400 105.54 396.03 112.65 399.64 119.94 391.65 118.37 385.83 124.05 384.86 115.97 377.65 112.19 385.04 108.77 386.41 100.74 391.94 106.71 400 105.54" style="fill:#fee6ee"/><polygon points="85.45 402.77 83.17 406.85 85.24 411.03 80.66 410.13 77.32 413.39 76.76 408.75 72.63 406.58 76.87 404.62 77.65 400.02 80.83 403.44 85.45 402.77" style="fill:#fee6ee"/><polygon points="289.51 667.1 285.51 669.52 285.24 674.18 281.71 671.13 277.19 672.31 279 668.01 276.48 664.08 281.13 664.47 284.09 660.86 285.16 665.4 289.51 667.1" style="fill:#fee6ee"/><polygon points="12.82 789.42 10.54 793.5 12.61 797.68 8.03 796.78 4.69 800.04 4.13 795.4 0 793.24 4.24 791.27 5.02 786.67 8.2 790.1 12.82 789.42" style="fill:#fee6ee"/><polygon points="81.13 629.75 83.91 637.4 91.78 639.45 85.36 644.45 85.84 652.58 79.1 648.02 71.52 650.99 73.77 643.16 68.61 636.88 76.74 636.6 81.13 629.75" style="fill:#fee6ee"/><polygon points="400 505.56 396.03 512.67 399.64 519.96 391.65 518.39 385.83 524.07 384.86 515.99 377.65 512.21 385.04 508.79 386.41 500.76 391.94 506.73 400 505.56" style="fill:#fee6ee"/></g></g></svg>