<svg xmlns="http://www.w3.org/2000/svg" viewBox="0 0 410.55 410.55">
  <title>linkedin</title>
  <g id="Layer_2" data-name="Layer 2">
    <g id="Capa_1" data-name="Capa 1">
      <path d="M205.28,0C91.91,0,0,91.9,0,205.27S91.91,410.55,205.28,410.55s205.27-91.91,205.27-205.28S318.65,0,205.28,0Zm-68.4,312H83.17V150.43h53.71ZM110,128.39h-.36C91.66,128.39,80,116,80,100.46c0-15.86,12-27.91,30.41-27.91s29.68,12,30,27.91C140.42,116,128.77,128.39,110,128.39ZM330.57,312H276.86V225.56c0-21.71-7.77-36.53-27.21-36.53-14.84,0-23.67,10-27.55,19.65-1.42,3.45-1.79,8.26-1.79,13.09V312H166.59s.72-146.4,0-161.57h53.72v22.9c7.14-11,19.88-26.69,48.41-26.69,35.35,0,61.85,23.09,61.85,72.72ZM220.31,173.86v-.53c-.11.18-.25.36-.35.53Z" fill="#372744"/>
    </g>
  </g>
</svg>
