<svg  id="968fbecf-ac8c-42b8-8053-ff5ef98dbe6e" data-name="Layer 1" xmlns="http://www.w3.org/2000/svg" viewBox="0 0 700 253.88"><title>backgrounddrips</title><path fill='#fde2eb' d="M725,527.24V730H25V527.24c2.3.1,4.69-1.36,6.23-3.21,3.37-4,4.27-9.59,4-14.83s-1.62-10.36-2.16-15.57a52.51,52.51,0,0,1,.05-11.14c1-1.91,3.57-3.17,5.39-2,1.07,2,3.74,2.35,5.51,3.74a7.78,7.78,0,0,1,1.06,1,132.9,132.9,0,0,1,9.75,90.94c-2.58,10.19-6.43,20.67-4.16,31S64.79,626.27,73.88,621c9.8-14.19,5.84-33.22,3.21-50.26A255.31,255.31,0,0,1,75,510.55c.67-8,1.88-16.41,6.72-22.84s14.45-9.93,21.22-5.56q-.09,28.38-.16,56.75c0,9.26,2.14,21.28,11.28,22.75,6.58,1.05,12.57-5,14-11.51s-.36-13.23-2-19.71a302.33,302.33,0,0,1-6.53-36c-.38-3.19-.61-6.77,1.4-9.28,1.83-2.29,5-3,7.86-3.49,21.31-3.66,47-2.57,59.48,15.1,4.43,6.29,6.51,13.94,7.8,21.52,3.41,20.08,1.8,40.61,1,61-1.23,30.36-.69,61,5.08,90.81,1.33,6.85,3,13.82,7,19.52s10.9,9.85,17.79,8.77c7.45-1.18,12.89-8.17,14.61-15.51s.5-15-.78-22.45c-9-52.39-19.55-105.36-14.63-158.29.26-2.82.62-5.77,2.26-8.08,1.83-2.58,4.93-3.91,7.92-5a98.77,98.77,0,0,1,32.26-5.6c3.78,0,7.75.24,10.94,2.26,5.56,3.5,6.88,11,7,17.55.22,12.59-2,25.13-2,37.73s2.6,25.89,11,35.29c8.55,6.37,21.7,0,26.18-9.62s2.92-20.9,1.24-31.43l-4.29-27.06c-1.4-8.8-2.47-18.83,3.26-25.64,6-7.18,17-7.46,26.11-5.14,7.17,1.84,14.1,4.92,21.31,6.21v.13c-1.41-.22-2.8-.52-4.19-.87A9.92,9.92,0,0,1,369.4,486a5.25,5.25,0,0,0,.28.59,27.77,27.77,0,0,1,1.36,3.25,3,3,0,0,0,.35,1c1.83,6,1.12,11.83-.35,18.44-.84,3.84-1.66,7.8-1.08,11.69.35,2.33,1.4,4.8,3.53,5.8a4.73,4.73,0,0,0,1.2.36v.08a4.18,4.18,0,0,0,.49,0l.13,0v0a8.61,8.61,0,0,0,5.6-3.19c3.37-4,4.27-9.59,4-14.83s-1.63-10.36-2.16-15.57a51.22,51.22,0,0,1,.05-11.14c1-1.91,3.56-3.17,5.38-2,1.07,2,3.74,2.35,5.52,3.74a7.7,7.7,0,0,1,1.05,1,133,133,0,0,1,9.76,90.94c-2.59,10.19-6.44,20.67-4.17,31s14.13,19.16,23.23,13.89c9.79-14.19,5.84-33.22,3.2-50.26a255.31,255.31,0,0,1-2.1-60.19c.67-8,1.88-16.41,6.72-22.84s14.46-9.93,21.21-5.56l-.15,56.75c0,9.26,2.14,21.28,11.29,22.75,6.57,1.05,12.56-5,14-11.51s-.37-13.23-1.95-19.71a300.33,300.33,0,0,1-6.53-36c-.39-3.19-.62-6.77,1.39-9.28,1.83-2.29,5-3,7.86-3.49,21.31-3.66,47-2.57,59.48,15.1,4.43,6.29,6.51,13.94,7.8,21.52,3.42,20.08,1.8,40.61,1,61-1.24,30.36-.71,61,5.07,90.81,1.33,6.85,3,13.82,7,19.52s10.9,9.85,17.79,8.77c7.45-1.18,12.89-8.17,14.61-15.51s.49-15-.78-22.45c-9-52.39-19.56-105.36-14.62-158.29.26-2.82.62-5.77,2.25-8.08,1.82-2.58,4.93-3.91,7.91-5a98.85,98.85,0,0,1,32.28-5.6c3.77,0,7.74.24,10.93,2.26,5.56,3.5,6.88,11,7,17.55.22,12.59-2,25.13-2,37.73s2.6,25.89,11,35.29c8.54,6.37,21.69,0,26.18-9.62s2.91-20.9,1.24-31.43l-4.3-27.06c-1.39-8.8-2.48-18.83,3.26-25.64,6-7.18,17-7.46,26.12-5.14,7.15,1.84,14.09,4.92,21.29,6.21v.13c-1.4-.22-2.79-.52-4.18-.87a9.92,9.92,0,0,1,4.27,3.14c.09.2.17.39.27.59a28,28,0,0,1,1.38,3.25,2.87,2.87,0,0,0,.33,1c1.83,6,1.13,11.83-.33,18.44-.85,3.84-1.66,7.8-1.08,11.69.35,2.33,1.39,4.8,3.52,5.8A4.55,4.55,0,0,0,725,527.24Z" transform="translate(-25 -476.12)"/>
</svg>