<svg xmlns="http://www.w3.org/2000/svg" viewBox="0 0 1366 768.5"><defs><style>.cab9d70a-e619-44be-91cd-923f0e42bf41{fill:#fee6ee;}.\31 4b46413-b4c7-4145-981a-86f0ae0bc843{fill:#fff;}.\31 4b46413-b4c7-4145-981a-86f0ae0bc843,.\38 90c264e-8b1a-4b8e-8e31-9de82b14998e{stroke:#fab0bf;strokeMiterlimit:10;}.\38 90c264e-8b1a-4b8e-8e31-9de82b14998e{fill:none;}</style></defs><title>bkgsquares</title><g id="db211837-84dd-4948-88b6-593a79a9f50b" data-name="Layer 2"><g id="547580f3-fa9e-4398-bcc9-07c7d7dfaebb" data-name="Layer 1"><rect class="cab9d70a-e619-44be-91cd-923f0e42bf41" y="0.5" width="1366" height="768"/></g><g id="f0bba59d-3890-4293-9b0c-0f7b7783f582" data-name="Layer 2"><line class="14b46413-b4c7-4145-981a-86f0ae0bc843" y1="16.5" x2="1366" y2="16.5"/><line class="14b46413-b4c7-4145-981a-86f0ae0bc843" y1="48.5" x2="1366" y2="48.5"/><line class="14b46413-b4c7-4145-981a-86f0ae0bc843" y1="80.5" x2="1366" y2="80.5"/><line class="14b46413-b4c7-4145-981a-86f0ae0bc843" y1="112.5" x2="1366" y2="112.5"/><line class="14b46413-b4c7-4145-981a-86f0ae0bc843" y1="144.5" x2="1366" y2="144.5"/><line class="14b46413-b4c7-4145-981a-86f0ae0bc843" y1="176.5" x2="1366" y2="176.5"/><line class="14b46413-b4c7-4145-981a-86f0ae0bc843" y1="208.5" x2="1366" y2="208.5"/><line class="14b46413-b4c7-4145-981a-86f0ae0bc843" y1="240.5" x2="1366" y2="240.5"/><line class="14b46413-b4c7-4145-981a-86f0ae0bc843" y1="272.5" x2="1366" y2="272.5"/><line class="14b46413-b4c7-4145-981a-86f0ae0bc843" y1="304.5" x2="1366" y2="304.5"/><line class="14b46413-b4c7-4145-981a-86f0ae0bc843" y1="336.5" x2="1366" y2="336.5"/><line class="14b46413-b4c7-4145-981a-86f0ae0bc843" y1="368.5" x2="1366" y2="368.5"/><line class="14b46413-b4c7-4145-981a-86f0ae0bc843" y1="400.5" x2="1366" y2="400.5"/><line class="14b46413-b4c7-4145-981a-86f0ae0bc843" y1="432.5" x2="1366" y2="432.5"/><line class="14b46413-b4c7-4145-981a-86f0ae0bc843" y1="464.5" x2="1366" y2="464.5"/><line class="14b46413-b4c7-4145-981a-86f0ae0bc843" y1="496.5" x2="1366" y2="496.5"/><line class="14b46413-b4c7-4145-981a-86f0ae0bc843" y1="528.5" x2="1366" y2="528.5"/><line class="14b46413-b4c7-4145-981a-86f0ae0bc843" y1="560.5" x2="1366" y2="560.5"/><line class="14b46413-b4c7-4145-981a-86f0ae0bc843" y1="592.5" x2="1366" y2="592.5"/><line class="14b46413-b4c7-4145-981a-86f0ae0bc843" y1="624.5" x2="1366" y2="624.5"/><line class="14b46413-b4c7-4145-981a-86f0ae0bc843" y1="656.5" x2="1366" y2="656.5"/><line class="14b46413-b4c7-4145-981a-86f0ae0bc843" y1="688.5" x2="1366" y2="688.5"/><line class="14b46413-b4c7-4145-981a-86f0ae0bc843" y1="720.5" x2="1366" y2="720.5"/><line class="14b46413-b4c7-4145-981a-86f0ae0bc843" y1="752.5" x2="1366" y2="752.5"/><line class="890c264e-8b1a-4b8e-8e31-9de82b14998e" x1="17.07" x2="17.07" y2="768"/><line class="890c264e-8b1a-4b8e-8e31-9de82b14998e" x1="51.23" y1="0.5" x2="51.23" y2="768.5"/><line class="890c264e-8b1a-4b8e-8e31-9de82b14998e" x1="85.38" x2="85.38" y2="768"/><line class="890c264e-8b1a-4b8e-8e31-9de82b14998e" x1="119.53" y1="0.5" x2="119.53" y2="768.5"/><line class="890c264e-8b1a-4b8e-8e31-9de82b14998e" x1="153.68" x2="153.68" y2="768"/><line class="890c264e-8b1a-4b8e-8e31-9de82b14998e" x1="187.82" y1="0.5" x2="187.82" y2="768.5"/><line class="890c264e-8b1a-4b8e-8e31-9de82b14998e" x1="221.98" x2="221.98" y2="768"/><line class="890c264e-8b1a-4b8e-8e31-9de82b14998e" x1="256.13" y1="0.5" x2="256.13" y2="768.5"/><line class="890c264e-8b1a-4b8e-8e31-9de82b14998e" x1="290.28" x2="290.28" y2="768"/><line class="890c264e-8b1a-4b8e-8e31-9de82b14998e" x1="324.43" y1="0.5" x2="324.43" y2="768.5"/><line class="890c264e-8b1a-4b8e-8e31-9de82b14998e" x1="358.57" x2="358.57" y2="768"/><line class="890c264e-8b1a-4b8e-8e31-9de82b14998e" x1="392.73" y1="0.5" x2="392.73" y2="768.5"/><line class="890c264e-8b1a-4b8e-8e31-9de82b14998e" x1="426.88" x2="426.88" y2="768"/><line class="890c264e-8b1a-4b8e-8e31-9de82b14998e" x1="461.03" y1="0.5" x2="461.03" y2="768.5"/><line class="890c264e-8b1a-4b8e-8e31-9de82b14998e" x1="495.18" x2="495.18" y2="768"/><line class="890c264e-8b1a-4b8e-8e31-9de82b14998e" x1="529.32" y1="0.5" x2="529.32" y2="768.5"/><line class="890c264e-8b1a-4b8e-8e31-9de82b14998e" x1="563.48" x2="563.48" y2="768"/><line class="890c264e-8b1a-4b8e-8e31-9de82b14998e" x1="597.63" y1="0.5" x2="597.63" y2="768.5"/><line class="890c264e-8b1a-4b8e-8e31-9de82b14998e" x1="631.78" x2="631.78" y2="768"/><line class="890c264e-8b1a-4b8e-8e31-9de82b14998e" x1="665.93" y1="0.5" x2="665.93" y2="768.5"/><line class="890c264e-8b1a-4b8e-8e31-9de82b14998e" x1="700.08" x2="700.08" y2="768"/><line class="890c264e-8b1a-4b8e-8e31-9de82b14998e" x1="734.23" y1="0.5" x2="734.23" y2="768.5"/><line class="890c264e-8b1a-4b8e-8e31-9de82b14998e" x1="768.38" x2="768.38" y2="768"/><line class="890c264e-8b1a-4b8e-8e31-9de82b14998e" x1="802.52" y1="0.5" x2="802.52" y2="768.5"/><line class="890c264e-8b1a-4b8e-8e31-9de82b14998e" x1="836.67" x2="836.67" y2="768"/><line class="890c264e-8b1a-4b8e-8e31-9de82b14998e" x1="870.83" y1="0.5" x2="870.83" y2="768.5"/><line class="890c264e-8b1a-4b8e-8e31-9de82b14998e" x1="904.98" x2="904.98" y2="768"/><line class="890c264e-8b1a-4b8e-8e31-9de82b14998e" x1="939.13" y1="0.5" x2="939.13" y2="768.5"/><line class="890c264e-8b1a-4b8e-8e31-9de82b14998e" x1="973.27" x2="973.27" y2="768"/><line class="890c264e-8b1a-4b8e-8e31-9de82b14998e" x1="1007.42" y1="0.5" x2="1007.42" y2="768.5"/><line class="890c264e-8b1a-4b8e-8e31-9de82b14998e" x1="1041.58" x2="1041.58" y2="768"/><line class="890c264e-8b1a-4b8e-8e31-9de82b14998e" x1="1075.72" y1="0.5" x2="1075.72" y2="768.5"/><line class="890c264e-8b1a-4b8e-8e31-9de82b14998e" x1="1109.88" y1="0.5" x2="1109.88" y2="768.5"/><line class="890c264e-8b1a-4b8e-8e31-9de82b14998e" x1="1144.03" x2="1144.03" y2="768"/><line class="890c264e-8b1a-4b8e-8e31-9de82b14998e" x1="1178.17" y1="0.5" x2="1178.17" y2="768.5"/><line class="890c264e-8b1a-4b8e-8e31-9de82b14998e" x1="1212.33" y1="0.5" x2="1212.33" y2="768.5"/><line class="890c264e-8b1a-4b8e-8e31-9de82b14998e" x1="1246.47" y1="0.5" x2="1246.47" y2="768.5"/><line class="890c264e-8b1a-4b8e-8e31-9de82b14998e" x1="1280.63" y1="0.5" x2="1280.63" y2="768.5"/><line class="890c264e-8b1a-4b8e-8e31-9de82b14998e" x1="1314.78" y1="0.5" x2="1314.78" y2="768.5"/><line class="890c264e-8b1a-4b8e-8e31-9de82b14998e" x1="1348.92" y1="0.5" x2="1348.92" y2="768.5"/></g></g></svg>