<svg id="Layer_4" data-name="Layer 4" xmlns="http://www.w3.org/2000/svg" viewBox="0 0 584 584">
  <title>moon</title>
  <path d="M941,384A292,292,0,0,1,649,676c-161.27,0-292-130.73-292-292S487.73,92,649,92a291,291,0,0,1,198.25,77.61s0,0,0,0A291.24,291.24,0,0,1,941,384Z" transform="translate(-357 -92)" fill="#1b1026"/>
  <path d="M941,384A291.56,291.56,0,0,1,823.92,617.83,241.41,241.41,0,0,1,745,631c-133.65,0-242-108.35-242-242S611.35,147,745,147a240.94,240.94,0,0,1,102.25,22.61s0,0,0,0A291.24,291.24,0,0,1,941,384Z" transform="translate(-357 -92)" fill="#fee6ee"/>
</svg>
