<svg xmlns="http://www.w3.org/2000/svg" viewBox="0 0 417.26 156.22"><defs><style>.\31 9b97a95-d68a-4653-81d6-140cc9b92a24,.c3481be7-7e63-44a3-a76f-f5ee39a514f5{fill:#372744;}.\31 b9fd574-2500-4cd3-9266-390e96db0230,.\34 798b1b7-ade0-480a-8bce-c700a094fd59,.\34 c490916-f03b-4c20-bf39-3cd1de554ea2,.a229df88-2668-4472-914e-c7afffc99ab6,.b31c7fe9-4b55-463d-89fa-821a3a2eb1c5,.c3481be7-7e63-44a3-a76f-f5ee39a514f5{stroke:#372744;}.\31 b9fd574-2500-4cd3-9266-390e96db0230,.\34 798b1b7-ade0-480a-8bce-c700a094fd59,.b31c7fe9-4b55-463d-89fa-821a3a2eb1c5,.c3481be7-7e63-44a3-a76f-f5ee39a514f5{strokeMiterlimit:10;}.\31 b9fd574-2500-4cd3-9266-390e96db0230{fill:#fcf58d;strokeWidth:3.01px;}.\34 798b1b7-ade0-480a-8bce-c700a094fd59,.\34 c490916-f03b-4c20-bf39-3cd1de554ea2,.a229df88-2668-4472-914e-c7afffc99ab6,.b31c7fe9-4b55-463d-89fa-821a3a2eb1c5{fill:none;strokeWidth:3.33px;}.a229df88-2668-4472-914e-c7afffc99ab6,.b31c7fe9-4b55-463d-89fa-821a3a2eb1c5{strokeLinecap:round;}.\34 c490916-f03b-4c20-bf39-3cd1de554ea2,.a229df88-2668-4472-914e-c7afffc99ab6{strokeLinejoin:round;}</style></defs><title>namelogo</title><g id="36225813-974e-49d6-8fff-1739298a9ce2" data-name="Layer 2"><g id="cac13658-14a2-47a2-b7d9-8d64b28f3793" data-name="Layer 1"><path class="19b97a95-d68a-4653-81d6-140cc9b92a24" d="M22.51,109.4q-8.82,0-12.29-5.8a10.5,10.5,0,0,1-1.56-5.44A12.65,12.65,0,0,1,10.42,92L36.06,46,0,46.08,5.91,35.49l130-.29L130,45.78l-53.94.13L49.79,93.09q-1.35,2.4-.46,4a3.45,3.45,0,0,0,3.33,1.62l16.72,0-5.89,10.59Z"/><path class="19b97a95-d68a-4653-81d6-140cc9b92a24" d="M140.9,56.43l1.57-1.14L144,54.18l39.1-.92L161.69,91.72a6.41,6.41,0,0,0-.77,2,3.17,3.17,0,0,0,.29,2q.85,1.62,3.36,1.62l11.22,0L169.88,108l-44.52.1-4-4.12q-8,5.28-21.73,5.47Q87,109.55,79.13,105q-10-5.83-10-18.78,0-15.89,18.15-25.4,15.48-8.1,35.37-8.15Q133.57,52.65,140.9,56.43ZM121.43,92.11c.08-.13,1.07-1.9,2.95-5.29l8.87-15.92q1.62-2.91.42-5t-4.13-2c-3.83,0-6.74,1.78-8.7,5.37-.67,1.19-1.67,3-3,5.32L109,90.52q-1.59,2.9-.42,5a4.31,4.31,0,0,0,4.13,2,9.45,9.45,0,0,0,5.18-1.4A10.91,10.91,0,0,0,121.43,92.11Z"/><path class="19b97a95-d68a-4653-81d6-140cc9b92a24" d="M231.57,58.38q9.35-7.66,17.13-8,14.55-.63,14.66,12.79a18.41,18.41,0,0,1-4.65,12q-5.23,6.34-12.7,6.37-6,0-9.46-3.11t-4.68-9.68a24.53,24.53,0,0,0-4.57,6.1l-18.63,33.47-40.31.09,30-53.87,33.53-.87Z"/><path class="19b97a95-d68a-4653-81d6-140cc9b92a24" d="M265.43,108.4q-8.87,0-12.26-5.8a10.61,10.61,0,0,1-1.56-5.44A12.56,12.56,0,0,1,253.37,91l20.3-36.39,40.49-.94L292.74,92.09a5,5,0,0,0-.8,3,3.38,3.38,0,0,0,.34,1.06,3.45,3.45,0,0,0,3.33,1.62l11.2,0-5.89,10.59Z"/><path class="19b97a95-d68a-4653-81d6-140cc9b92a24" d="M375.89,108.23q-10.38,0-13.53-4.53a7.55,7.55,0,0,1-1.3-4.36c0-2.42.91-5.27,2.74-8.54l11-19.66a3.09,3.09,0,0,0-.29-3.79,4.64,4.64,0,0,0-3.69-1.59,9.9,9.9,0,0,0-9.23,5.44l-20.65,37.11-40.32.09,30-53.87,33.15-.87.05,2.21.11,2.22A56.54,56.54,0,0,1,389.53,52q14-.11,20.68,6.84a13.08,13.08,0,0,1,3.68,9.36,20.92,20.92,0,0,1-3.07,10.06l-7.66,13.69q-1.34,2.4-.45,4t3.36,1.62l11.19,0-5.88,10.59Z"/><path class="c3481be7-7e63-44a3-a76f-f5ee39a514f5" d="M304.38,1.71,307.76,15a1.62,1.62,0,0,0,1,1.12l12.82,4.72a1.61,1.61,0,0,1,.31,2.87L310.35,31a1.6,1.6,0,0,0-.75,1.3l-.53,13.65a1.61,1.61,0,0,1-2.64,1.18l-10.51-8.72a1.6,1.6,0,0,0-1.47-.31L281.3,41.78a1.61,1.61,0,0,1-1.94-2.14l5.05-12.7a1.58,1.58,0,0,0-.16-1.49l-7.6-11.36a1.61,1.61,0,0,1,1.45-2.5l13.63.87a1.59,1.59,0,0,0,1.37-.61l8.45-10.73A1.61,1.61,0,0,1,304.38,1.71Z"/><polyline class="19b97a95-d68a-4653-81d6-140cc9b92a24" points="54.96 109.33 410.94 109.33 410.94 102.71 68.94 98.71"/><path class="1b9fd574-2500-4cd3-9266-390e96db0230" d="M376.77,116.79l.63,11.36a1.36,1.36,0,0,0,.65,1.08l9.72,5.92a1.34,1.34,0,0,1-.22,2.4l-10.61,4.11a1.34,1.34,0,0,0-.82.94l-2.63,11.08a1.35,1.35,0,0,1-2.35.54L364,145.39a1.37,1.37,0,0,0-1.15-.49l-11.35.93a1.35,1.35,0,0,1-1.24-2.07l6.17-9.57a1.33,1.33,0,0,0,.12-1.24l-4.39-10.51a1.34,1.34,0,0,1,1.58-1.81l11,2.91a1.35,1.35,0,0,0,1.22-.28l8.63-7.42A1.35,1.35,0,0,1,376.77,116.79Z"/><polyline class="a229df88-2668-4472-914e-c7afffc99ab6" points="331.1 119.47 336 119.47 346.9 125.75"/><line class="a229df88-2668-4472-914e-c7afffc99ab6" x1="331.1" y1="119.47" x2="328.17" y2="119.47"/><polyline class="a229df88-2668-4472-914e-c7afffc99ab6" points="330.05 147.37 336.63 147.37 344.83 142.28"/><line class="a229df88-2668-4472-914e-c7afffc99ab6" x1="317.6" y1="147.38" x2="330.04" y2="147.37"/><line class="4c490916-f03b-4c20-bf39-3cd1de554ea2" x1="313.9" y1="147.39" x2="317.6" y2="147.38"/><polyline class="b31c7fe9-4b55-463d-89fa-821a3a2eb1c5" points="319.27 134.08 330.69 134.07 345.87 134.01"/><line class="4798b1b7-ade0-480a-8bce-c700a094fd59" x1="314.37" y1="134.08" x2="319.27" y2="134.08"/><path class="1b9fd574-2500-4cd3-9266-390e96db0230" d="M40.11,116.88l-.41,11.38a1.34,1.34,0,0,1-.62,1.08l-9.61,6.11a1.35,1.35,0,0,0,.26,2.4l10.69,3.91a1.32,1.32,0,0,1,.84.92l2.84,11a1.35,1.35,0,0,0,2.36.49l7-9a1.33,1.33,0,0,1,1.14-.51l11.36.7a1.34,1.34,0,0,0,1.2-2.09l-6.35-9.45a1.3,1.3,0,0,1-.13-1.24l4.18-10.59a1.34,1.34,0,0,0-1.62-1.78L52.31,123.4a1.32,1.32,0,0,1-1.22-.26l-8.78-7.24A1.34,1.34,0,0,0,40.11,116.88Z"/><polyline class="a229df88-2668-4472-914e-c7afffc99ab6" points="85.83 118.69 80.92 118.78 70.15 125.27"/><line class="4c490916-f03b-4c20-bf39-3cd1de554ea2" x1="100.08" y1="119" x2="102.86" y2="119.06"/><polyline class="a229df88-2668-4472-914e-c7afffc99ab6" points="88.76 118.63 85.83 118.69 100.08 119"/><polyline class="a229df88-2668-4472-914e-c7afffc99ab6" points="87.42 146.57 80.83 146.69 72.54 141.75"/><line class="a229df88-2668-4472-914e-c7afffc99ab6" x1="99.86" y1="146.34" x2="87.42" y2="146.57"/><line class="4c490916-f03b-4c20-bf39-3cd1de554ea2" x1="103.56" y1="146.27" x2="99.86" y2="146.34"/><polyline class="b31c7fe9-4b55-463d-89fa-821a3a2eb1c5" points="97.94 133.07 86.51 133.28 71.34 133.51"/><line class="4798b1b7-ade0-480a-8bce-c700a094fd59" x1="102.84" y1="132.98" x2="97.94" y2="133.07"/><path class="19b97a95-d68a-4653-81d6-140cc9b92a24" d="M110.3,147.05v-3.87h13.47a2.29,2.29,0,0,0,1.65-.64,2.44,2.44,0,0,0,.66-1.85,2.21,2.21,0,0,0-.75-1.82,2.48,2.48,0,0,0-1.56-.61h-3a11.74,11.74,0,0,1-4.57-.86,10.94,10.94,0,0,1-3.61-2.43,11.12,11.12,0,0,1-2.4-3.76,13,13,0,0,1-.86-4.85,13.67,13.67,0,0,1,.8-4.83,10.94,10.94,0,0,1,2.29-3.73,10,10,0,0,1,3.52-2.4,12,12,0,0,1,4.6-.84h13.12v3.88H120.59a7.56,7.56,0,0,0-5.64,2.14,7.88,7.88,0,0,0-2.11,5.78,8.73,8.73,0,0,0,.61,3.32,7.35,7.35,0,0,0,4.22,4.13,8.44,8.44,0,0,0,3.15.58h2.78a5.56,5.56,0,0,1,2.25.49,6.91,6.91,0,0,1,2,1.33,7.07,7.07,0,0,1,1.41,2,5.66,5.66,0,0,1,.55,2.48,6.41,6.41,0,0,1-1.7,4.54,5.61,5.61,0,0,1-4.25,1.82Zm0,6.07v-3.87h13.53a9.28,9.28,0,0,0,3.26-.58,7.28,7.28,0,0,0,2.63-1.68,8.08,8.08,0,0,0,1.74-2.66,9.49,9.49,0,0,0,.63-3.58,9,9,0,0,0-.69-3.58,7.83,7.83,0,0,0-1.88-2.72,8.82,8.82,0,0,0-2.72-1.71,8.7,8.7,0,0,0-3.2-.6h-2.78a5.73,5.73,0,0,1-4-1.53,5.4,5.4,0,0,1-1.67-4.2,6,6,0,0,1,1.44-4.22,5.16,5.16,0,0,1,4-1.56h13.12v3.88h-13a1.74,1.74,0,0,0-1.48.57,2.16,2.16,0,0,0-.43,1.33,1.89,1.89,0,0,0,.52,1.33,1.75,1.75,0,0,0,1.39.58h2.89a12,12,0,0,1,4.65.9,11.38,11.38,0,0,1,3.79,2.54,12.16,12.16,0,0,1,2.54,3.93,13.49,13.49,0,0,1,.92,5.06,14.33,14.33,0,0,1-.86,5.06,11.41,11.41,0,0,1-2.43,3.9,10.88,10.88,0,0,1-3.7,2.51,12,12,0,0,1-4.68.9Z"/><path class="19b97a95-d68a-4653-81d6-140cc9b92a24" d="M157.41,149.25v3.87h-7q-5.79,0-9-3.58t-3.24-9.89V114.56h3.41v25c0,3.13.74,5.52,2.2,7.17s3.68,2.49,6.65,2.49Zm-14-34.69H147v7.23h10.23v3.87H143.42Zm13.76,13.24v3.87H147v8a3.68,3.68,0,0,0,.81,2.63,3.56,3.56,0,0,0,2.66.84h7v3.87h-7q-3.71,0-5.32-2.08a8.51,8.51,0,0,1-1.62-5.38V127.8Z"/><path class="19b97a95-d68a-4653-81d6-140cc9b92a24" d="M173.19,118.44q-8.79,0-8.79,9.65v25h-3.46v-25q0-6.53,3.23-10t9-3.5h7.23v3.88Zm0,6.07a3.62,3.62,0,0,0-2.69.78,4.15,4.15,0,0,0-.72,2.8v25h-3.53v-25c0-2.74.63-4.66,1.88-5.78a7.31,7.31,0,0,1,5.06-1.68h7.23v3.88Z"/><path class="19b97a95-d68a-4653-81d6-140cc9b92a24" d="M198.8,153.12a17,17,0,0,1-7-1.42,16.22,16.22,0,0,1-5.53-4,18.26,18.26,0,0,1-3.61-6.09,22.82,22.82,0,0,1-1.3-7.84,22.55,22.55,0,0,1,1.3-7.8,18.47,18.47,0,0,1,3.61-6.07,16.22,16.22,0,0,1,5.53-4,17.2,17.2,0,0,1,7-1.42h1.39a17.27,17.27,0,0,1,7,1.42,16.09,16.09,0,0,1,5.52,4,18.3,18.3,0,0,1,3.61,6.07,22.32,22.32,0,0,1,1.3,7.8,22.59,22.59,0,0,1-1.3,7.84,18.1,18.1,0,0,1-3.61,6.09,16.09,16.09,0,0,1-5.52,4,17.1,17.1,0,0,1-7,1.42Zm-14.05-19.31a18.43,18.43,0,0,0,1,6.33,14.37,14.37,0,0,0,2.92,4.89,12.9,12.9,0,0,0,4.45,3.12,14.29,14.29,0,0,0,5.64,1.1h1.39a14.05,14.05,0,0,0,5.57-1.1,12.94,12.94,0,0,0,4.46-3.12,14.2,14.2,0,0,0,2.91-4.89,19.69,19.69,0,0,0,0-12.63,14.2,14.2,0,0,0-2.91-4.85,12.94,12.94,0,0,0-4.46-3.12,13.88,13.88,0,0,0-5.57-1.1H198.8a14.12,14.12,0,0,0-5.64,1.1,12.9,12.9,0,0,0-4.45,3.12,14.38,14.38,0,0,0-2.92,4.85A18.26,18.26,0,0,0,184.75,133.81Zm14.05,13.3a12.22,12.22,0,0,1-4.77-.93,10.74,10.74,0,0,1-3.84-2.66,12.49,12.49,0,0,1-2.55-4.19,16.84,16.84,0,0,1,0-11,12.59,12.59,0,0,1,2.55-4.19A10.87,10.87,0,0,1,194,121.5a12.21,12.21,0,0,1,4.77-.92h1.39a12.06,12.06,0,0,1,4.74.92,11,11,0,0,1,3.81,2.66,12.59,12.59,0,0,1,2.55,4.19,16.84,16.84,0,0,1,0,11,12.49,12.49,0,0,1-2.55,4.19,10.89,10.89,0,0,1-3.81,2.66,12.07,12.07,0,0,1-4.74.93Zm1.39-3.87a8.46,8.46,0,0,0,6.21-2.37c1.6-1.58,2.4-3.94,2.4-7.06s-.81-5.41-2.43-7a8.49,8.49,0,0,0-6.18-2.37H198.8a8.49,8.49,0,0,0-6.21,2.34q-2.4,2.34-2.4,7c0,3.12.8,5.48,2.4,7.06a8.43,8.43,0,0,0,6.21,2.37Z"/><path class="19b97a95-d68a-4653-81d6-140cc9b92a24" d="M220.88,147.05v-3.87h13.47a2.29,2.29,0,0,0,1.65-.64,2.44,2.44,0,0,0,.66-1.85,2.21,2.21,0,0,0-.75-1.82,2.48,2.48,0,0,0-1.56-.61H231.4a11.74,11.74,0,0,1-4.57-.86,10.94,10.94,0,0,1-3.61-2.43,11.12,11.12,0,0,1-2.4-3.76,13,13,0,0,1-.86-4.85,13.67,13.67,0,0,1,.8-4.83,10.94,10.94,0,0,1,2.29-3.73,10,10,0,0,1,3.52-2.4,12,12,0,0,1,4.6-.84h13.12v3.88H231.17a7.56,7.56,0,0,0-5.64,2.14,7.88,7.88,0,0,0-2.11,5.78,8.73,8.73,0,0,0,.61,3.32,7.35,7.35,0,0,0,4.22,4.13,8.44,8.44,0,0,0,3.15.58h2.78a5.56,5.56,0,0,1,2.25.49,6.91,6.91,0,0,1,2,1.33,7.07,7.07,0,0,1,1.41,2,5.66,5.66,0,0,1,.55,2.48,6.41,6.41,0,0,1-1.7,4.54,5.61,5.61,0,0,1-4.25,1.82Zm0,6.07v-3.87h13.53a9.28,9.28,0,0,0,3.26-.58A7.28,7.28,0,0,0,240.3,147a8.08,8.08,0,0,0,1.74-2.66,9.49,9.49,0,0,0,.63-3.58,9,9,0,0,0-.69-3.58,7.83,7.83,0,0,0-1.88-2.72,8.82,8.82,0,0,0-2.72-1.71,8.7,8.7,0,0,0-3.2-.6H231.4a5.73,5.73,0,0,1-4-1.53,5.4,5.4,0,0,1-1.67-4.2,6,6,0,0,1,1.44-4.22,5.16,5.16,0,0,1,4-1.56h13.12v3.88h-13a1.74,1.74,0,0,0-1.48.57,2.16,2.16,0,0,0-.43,1.33,1.89,1.89,0,0,0,.52,1.33,1.75,1.75,0,0,0,1.39.58h2.89a12,12,0,0,1,4.65.9,11.38,11.38,0,0,1,3.79,2.54,12.16,12.16,0,0,1,2.54,3.93,13.49,13.49,0,0,1,.92,5.06,14.33,14.33,0,0,1-.86,5.06,11.41,11.41,0,0,1-2.43,3.9,10.88,10.88,0,0,1-3.7,2.51,12,12,0,0,1-4.68.9Z"/><path class="19b97a95-d68a-4653-81d6-140cc9b92a24" d="M248.92,147.05v-3.87h13.46a2.26,2.26,0,0,0,1.65-.64,2.45,2.45,0,0,0,.67-1.85,2.18,2.18,0,0,0-.76-1.82,2.48,2.48,0,0,0-1.56-.61h-2.94a11.74,11.74,0,0,1-4.57-.86,10.84,10.84,0,0,1-3.61-2.43,11,11,0,0,1-2.4-3.76,13,13,0,0,1-.87-4.85,13.67,13.67,0,0,1,.81-4.83,10.92,10.92,0,0,1,2.28-3.73,10.06,10.06,0,0,1,3.53-2.4,12,12,0,0,1,4.6-.84h13.12v3.88H259.21a7.53,7.53,0,0,0-5.64,2.14,7.84,7.84,0,0,0-2.11,5.78,8.54,8.54,0,0,0,.61,3.32,7.31,7.31,0,0,0,1.67,2.51,7.41,7.41,0,0,0,2.55,1.62,8.44,8.44,0,0,0,3.15.58h2.77a5.56,5.56,0,0,1,2.25.49,6.77,6.77,0,0,1,2,1.33,6.9,6.9,0,0,1,1.42,2,5.8,5.8,0,0,1,.55,2.48,6.37,6.37,0,0,1-1.71,4.54,5.6,5.6,0,0,1-4.25,1.82Zm0,6.07v-3.87h13.52a9.3,9.3,0,0,0,3.27-.58,7.28,7.28,0,0,0,2.63-1.68,7.9,7.9,0,0,0,1.73-2.66,9.3,9.3,0,0,0,.64-3.58,8.86,8.86,0,0,0-.7-3.58,7.94,7.94,0,0,0-1.87-2.72,8.82,8.82,0,0,0-2.72-1.71,8.71,8.71,0,0,0-3.21-.6h-2.77a5.69,5.69,0,0,1-4-1.53,5.41,5.41,0,0,1-1.68-4.2,5.94,5.94,0,0,1,1.45-4.22,5.16,5.16,0,0,1,4-1.56h13.12v3.88h-13a1.72,1.72,0,0,0-1.47.57,2.17,2.17,0,0,0-.44,1.33,1.94,1.94,0,0,0,.52,1.33,1.77,1.77,0,0,0,1.39.58h2.89a12,12,0,0,1,4.65.9,11.28,11.28,0,0,1,3.79,2.54,11.83,11.83,0,0,1,2.54,3.93,13.29,13.29,0,0,1,.93,5.06,14.1,14.1,0,0,1-.87,5.06,11.41,11.41,0,0,1-2.43,3.9,10.79,10.79,0,0,1-3.7,2.51,11.9,11.9,0,0,1-4.68.9Z"/><path class="19b97a95-d68a-4653-81d6-140cc9b92a24" d="M277.47,153.12V114.56h17.69v3.88H281v30.81h14.1v3.87Zm5.43-20.64V120.63h12.26v3.88h-8.73v4.1h8.44v3.87Zm0,14.57V134.68h12v3.87h-8.44v4.63h8.67v3.87Z"/><path class="19b97a95-d68a-4653-81d6-140cc9b92a24" d="M310.71,118.44q-8.79,0-8.79,9.65v25h-3.47v-25q0-6.53,3.24-10t9-3.5h7.22v3.88Zm0,6.07a3.62,3.62,0,0,0-2.69.78,4.15,4.15,0,0,0-.72,2.8v25h-3.53v-25c0-2.74.63-4.66,1.88-5.78a7.31,7.31,0,0,1,5.06-1.68h7.22v3.88Z"/></g></g></svg>