<svg id="Layer_3" data-name="Layer 3" xmlns="http://www.w3.org/2000/svg" viewBox="0 0 1366 664.58">
  <title>starbkg</title>
  <path d="M1366,0V126.8a525.66,525.66,0,0,1-151.49-40.58q-8.88-3.85-17.62-8.07-7.76-3.74-15.39-7.72C1157.41,57.83,1134,43.24,1108,35.51a156.4,156.4,0,0,0-47.82-6.32c-47,.94-93.84,21.46-133.69,50.24a349.07,349.07,0,0,0-28.08,22.62q-3.25,2.91-6.45,5.88c-21.17,19.6-41,41-62.39,60.23-15.69,14.11-32.2,27.05-50.69,37.27q-3.2,1.77-6.46,3.4A201,201,0,0,1,629.73,223c-18.47-5.13-36-12.85-53.26-21.22-16.46-8-32.71-16.52-49.39-24a284.93,284.93,0,0,0-31.41-12.08c-15.94-5-32.31-8.08-48.83-10.47-16.11-2.35-32.38-4-48.56-6.14-6.38-.83-12.74-1.73-19.07-2.76-31.43-5.12-63.61-14.37-88.87-33a117.17,117.17,0,0,1-16.69-14.92l0,0c-7.35-8-14.11-17.46-24.32-21h0l-.26-.09a26.06,26.06,0,0,0-4.14-1h0C237.64,75,230,76.51,222.72,78l-27.16,5.67L174,88.21,126.64,98.1q-43.36,9.06-86.74,18.11c-14.16,2.94-27.62,5.14-37.95-3A22,22,0,0,1,0,111.55V0H1177a.92.92,0,0,1,.84,0Z" transform="translate(0 0.1)" fill="#1b1026"/>
  <path d="M789.3,228.89l-63.87,35.87a7.32,7.32,0,0,0-3.7,5.71l-6.66,72.95a7.32,7.32,0,0,1-12.25,4.72L649,298.48a7.29,7.29,0,0,0-6.57-1.76L571,312.93a7.32,7.32,0,0,1-8.27-10.19l30.59-66.56a7.31,7.31,0,0,0-.36-6.8l-37.49-62.93a7.31,7.31,0,0,1,7.13-11L635.32,164a7.31,7.31,0,0,0,6.35-2.45l48.27-55.1a7.32,7.32,0,0,1,12.68,3.39L717,181.62a7.35,7.35,0,0,0,4.29,5.29l67.32,28.88A7.31,7.31,0,0,1,789.3,228.89Z" transform="translate(0 0.1)" fill="#1b1026"/>
  <path d="M1079.57,70.09,1006.42,74a7.28,7.28,0,0,0-5.85,3.48l-38.3,62.45a7.31,7.31,0,0,1-13.06-1.2L926.44,79.43l-3.51-9.13a7.3,7.3,0,0,0-5.12-4.49L863.38,52.72l-11.13-2.67-5.66-1.36a7.32,7.32,0,0,1-2.9-12.8L888,0h147.88a7.18,7.18,0,0,0,1.33,2.32l22.94,26.87L1084.75,58A7.32,7.32,0,0,1,1079.57,70.09Z" transform="translate(0 0.1)" fill="#1b1026"/>
  <path d="M217.3,63.89l-6.05,3.4-13.49,7.57h0l-3.26,1.83L174,88.21,153.43,99.76a7.32,7.32,0,0,0-3.7,5.71l-6.66,72.95a7.32,7.32,0,0,1-12.25,4.72L77,133.48a7.29,7.29,0,0,0-6.57-1.76L0,147.69V117.48l2-4.23L21.28,71.18a7.31,7.31,0,0,0-.36-6.8L0,29.26V0H141.66L145,16.62a7.35,7.35,0,0,0,4.29,5.29l48,20.6,19.3,8.28A7.31,7.31,0,0,1,217.3,63.89Z" transform="translate(0 0.1)" fill="#1b1026"/>
  <path d="M362.2,348.4l-38.28,21.5a4.39,4.39,0,0,0-2.22,3.43l-4,43.73a4.38,4.38,0,0,1-7.34,2.82l-32.28-29.77a4.4,4.4,0,0,0-3.94-1.05l-42.82,9.72a4.39,4.39,0,0,1-5-6.11l18.34-39.9a4.4,4.4,0,0,0-.22-4.08L222,311a4.38,4.38,0,0,1,4.27-6.6l43.62,5.11a4.38,4.38,0,0,0,3.81-1.47l28.93-33a4.39,4.39,0,0,1,7.6,2l8.62,43.06a4.38,4.38,0,0,0,2.57,3.17l40.35,17.31A4.38,4.38,0,0,1,362.2,348.4Z" transform="translate(0 0.1)" fill="#1b1026"/>
  <path d="M408,446l-5.19,27.28a2.79,2.79,0,0,0,.75,2.47l19.53,19.74a2.77,2.77,0,0,1-1.62,4.7l-27.55,3.5a2.75,2.75,0,0,0-2.11,1.48l-12.74,24.67a2.78,2.78,0,0,1-5-.09l-11.84-25.12a2.77,2.77,0,0,0-2.06-1.55l-27.4-4.49a2.77,2.77,0,0,1-1.45-4.76l20.23-19a2.79,2.79,0,0,0,.84-2.44l-4.2-27.46a2.78,2.78,0,0,1,4.08-2.85l24.34,13.37a2.77,2.77,0,0,0,2.58.05L404.05,443A2.78,2.78,0,0,1,408,446Z" transform="translate(0 0.1)" fill="#1b1026"/>
  <path d="M483.5,523.4,481.67,533a1,1,0,0,0,.26.87l6.89,7a1,1,0,0,1-.58,1.66l-9.7,1.23a1,1,0,0,0-.75.53L473.3,553a1,1,0,0,1-1.75,0l-4.18-8.85a1,1,0,0,0-.72-.55L457,541.94a1,1,0,0,1-.51-1.68l7.13-6.7a1,1,0,0,0,.3-.86L462.43,523a1,1,0,0,1,1.43-1l8.58,4.71a1,1,0,0,0,.91,0l8.75-4.39A1,1,0,0,1,483.5,523.4Z" transform="translate(0 0.1)" fill="#1b1026"/>
  <path d="M261.5,482.4,259.67,492a1,1,0,0,0,.26.87l6.89,6.95a1,1,0,0,1-.58,1.66l-9.7,1.23a1,1,0,0,0-.75.53L251.3,512a1,1,0,0,1-1.75,0l-4.18-8.85a1,1,0,0,0-.72-.55L235,500.94a1,1,0,0,1-.51-1.68l7.13-6.7a1,1,0,0,0,.3-.86L240.43,482a1,1,0,0,1,1.43-1l8.58,4.71a1,1,0,0,0,.91,0l8.75-4.39A1,1,0,0,1,261.5,482.4Z" transform="translate(0 0.1)" fill="#1b1026"/>
  <path d="M138.5,618.4,136.67,628a1,1,0,0,0,.26.87l6.89,7a1,1,0,0,1-.58,1.66l-9.7,1.23a1,1,0,0,0-.75.53L128.3,648a1,1,0,0,1-1.75,0l-4.18-8.85a1,1,0,0,0-.72-.55L112,636.94a1,1,0,0,1-.51-1.68l7.13-6.7a1,1,0,0,0,.3-.86L117.43,618a1,1,0,0,1,1.43-1l8.58,4.71a1,1,0,0,0,.91,0l8.75-4.39A1,1,0,0,1,138.5,618.4Z" transform="translate(0 0.1)" fill="#1b1026"/>
  <path d="M162.5,400.4,160.67,410a1,1,0,0,0,.26.87l6.89,6.95a1,1,0,0,1-.58,1.66l-9.7,1.23a1,1,0,0,0-.75.53L152.3,430a1,1,0,0,1-1.75,0l-4.18-8.85a1,1,0,0,0-.72-.55L136,418.94a1,1,0,0,1-.51-1.68l7.13-6.7a1,1,0,0,0,.3-.86L141.43,400a1,1,0,0,1,1.43-1l8.58,4.71a1,1,0,0,0,.91,0l8.75-4.39A1,1,0,0,1,162.5,400.4Z" transform="translate(0 0.1)" fill="#1b1026"/>
  <path d="M35.5,358.4,33.67,368a1,1,0,0,0,.26.87l6.89,6.95a1,1,0,0,1-.58,1.66l-9.7,1.23a1,1,0,0,0-.75.53L25.3,388a1,1,0,0,1-1.75,0l-4.18-8.85a1,1,0,0,0-.72-.55L9,376.94a1,1,0,0,1-.51-1.68l7.13-6.7a1,1,0,0,0,.3-.86L14.43,358a1,1,0,0,1,1.43-1l8.58,4.71a1,1,0,0,0,.91,0l8.75-4.39A1,1,0,0,1,35.5,358.4Z" transform="translate(0 0.1)" fill="#1b1026"/>
  <path d="M245.5,223.4,243.67,233a1,1,0,0,0,.26.87l6.89,7a1,1,0,0,1-.58,1.66l-9.7,1.23a1,1,0,0,0-.75.53L235.3,253a1,1,0,0,1-1.75,0l-4.18-8.85a1,1,0,0,0-.72-.55L219,241.94a1,1,0,0,1-.51-1.68l7.13-6.7a1,1,0,0,0,.3-.86L224.43,223a1,1,0,0,1,1.43-1l8.58,4.71a1,1,0,0,0,.91,0l8.75-4.39A1,1,0,0,1,245.5,223.4Z" transform="translate(0 0.1)" fill="#1b1026"/>
  <path d="M68.5,186.4,66.67,196a1,1,0,0,0,.26.87l6.89,7a1,1,0,0,1-.58,1.66l-9.7,1.23a1,1,0,0,0-.75.53L58.3,216a1,1,0,0,1-1.75,0l-4.18-8.85a1,1,0,0,0-.72-.55L42,204.94a1,1,0,0,1-.51-1.68l7.13-6.7a1,1,0,0,0,.3-.86L47.43,186a1,1,0,0,1,1.43-1l8.58,4.71a1,1,0,0,0,.91,0l8.75-4.39A1,1,0,0,1,68.5,186.4Z" transform="translate(0 0.1)" fill="#1b1026"/>
  <path d="M196.29,169.43l-8.52,4.83a1,1,0,0,0-.49.76l-.85,9.75a1,1,0,0,1-1.63.64l-7.22-6.61a1,1,0,0,0-.88-.23l-9.54,2.21a1,1,0,0,1-1.11-1.36l4-8.91a1,1,0,0,0,0-.91l-5-8.39a1,1,0,0,1,.94-1.47l9.73,1.1a1,1,0,0,0,.85-.33l6.42-7.39a1,1,0,0,1,1.69.45l2,9.59a1,1,0,0,0,.58.7l9,3.82A1,1,0,0,1,196.29,169.43Z" transform="translate(0 0.1)" fill="#1b1026"/>
  <path d="M451.5,326.4,449.67,336a1,1,0,0,0,.26.87l6.89,6.95a1,1,0,0,1-.58,1.66l-9.7,1.23a1,1,0,0,0-.75.53L441.3,356a1,1,0,0,1-1.75,0l-4.18-8.85a1,1,0,0,0-.72-.55L425,344.94a1,1,0,0,1-.51-1.68l7.13-6.7a1,1,0,0,0,.3-.86L430.43,326a1,1,0,0,1,1.43-1l8.58,4.71a1,1,0,0,0,.91,0l8.75-4.39A1,1,0,0,1,451.5,326.4Z" transform="translate(0 0.1)" fill="#1b1026"/>
  <path d="M421.5,54.4,419.67,64a1,1,0,0,0,.26.87l6.89,7a1,1,0,0,1-.58,1.66l-9.7,1.23a1,1,0,0,0-.75.53L411.3,84a1,1,0,0,1-1.75,0l-4.18-8.85a1,1,0,0,0-.72-.55L395,72.94a1,1,0,0,1-.51-1.68l7.13-6.7a1,1,0,0,0,.3-.86L400.43,54a1,1,0,0,1,1.43-1l8.58,4.71a1,1,0,0,0,.91,0l8.75-4.39A1,1,0,0,1,421.5,54.4Z" transform="translate(0 0.1)" fill="#1b1026"/>
  <path d="M605.5,99.4,603.67,109a1,1,0,0,0,.26.87l6.89,7a1,1,0,0,1-.58,1.66l-9.7,1.23a1,1,0,0,0-.75.53L595.3,129a1,1,0,0,1-1.75,0l-4.18-8.85a1,1,0,0,0-.72-.55L579,117.94a1,1,0,0,1-.51-1.68l7.13-6.7a1,1,0,0,0,.3-.86L584.43,99a1,1,0,0,1,1.43-1l8.58,4.71a1,1,0,0,0,.91,0l8.75-4.39A1,1,0,0,1,605.5,99.4Z" transform="translate(0 0.1)" fill="#1b1026"/>
  <path d="M731.5,38.4,729.67,48a1,1,0,0,0,.26.87l6.89,7a1,1,0,0,1-.58,1.66l-9.7,1.23a1,1,0,0,0-.75.53L721.3,68a1,1,0,0,1-1.75,0l-4.18-8.85a1,1,0,0,0-.72-.55L705,56.94a1,1,0,0,1-.51-1.68l7.13-6.7a1,1,0,0,0,.3-.86L710.43,38a1,1,0,0,1,1.43-1l8.58,4.71a1,1,0,0,0,.91,0l8.75-4.39A1,1,0,0,1,731.5,38.4Z" transform="translate(0 0.1)" fill="#1b1026"/>
  <path d="M837.49,264.78l-5.21,8.29a1,1,0,0,0-.07.9l3.88,9A1,1,0,0,1,835,284.3l-9.49-2.39a1,1,0,0,0-.88.21l-7.35,6.46a1,1,0,0,1-1.62-.66l-.66-9.77a1,1,0,0,0-.48-.77l-8.42-5a1,1,0,0,1,.14-1.74l9.08-3.65a1,1,0,0,0,.59-.69l2.14-9.55a1,1,0,0,1,1.71-.41l6.27,7.51a1,1,0,0,0,.84.35l9.75-.91A1,1,0,0,1,837.49,264.78Z" transform="translate(0 0.1)" fill="#1b1026"/>
  <path d="M936.87,258.73l-7,6.87a1,1,0,0,0-.28.86l1.71,9.64a1,1,0,0,1-1.42,1l-8.68-4.51a1,1,0,0,0-.91,0l-8.64,4.6a1,1,0,0,1-1.43-1l1.61-9.65a1,1,0,0,0-.29-.87l-7.05-6.79a1,1,0,0,1,.54-1.67l9.68-1.46a1,1,0,0,0,.73-.54l4.28-8.8a1,1,0,0,1,1.76,0l4.38,8.76a1,1,0,0,0,.73.53l9.7,1.35A1,1,0,0,1,936.87,258.73Z" transform="translate(0 0.1)" fill="#1b1026"/>
  <path d="M660.5,396.4,658.67,406a1,1,0,0,0,.26.87l6.89,6.95a1,1,0,0,1-.58,1.66l-9.7,1.23a1,1,0,0,0-.75.53L650.3,426a1,1,0,0,1-1.75,0l-4.18-8.85a1,1,0,0,0-.72-.55L634,414.94a1,1,0,0,1-.51-1.68l7.13-6.7a1,1,0,0,0,.3-.86L639.43,396a1,1,0,0,1,1.43-1l8.58,4.71a1,1,0,0,0,.91,0l8.75-4.39A1,1,0,0,1,660.5,396.4Z" transform="translate(0 0.1)" fill="#1b1026"/>
  <path d="M809.5,507.4,807.67,517a1,1,0,0,0,.26.87l6.89,7a1,1,0,0,1-.58,1.66l-9.7,1.23a1,1,0,0,0-.75.53L799.3,537a1,1,0,0,1-1.75,0l-4.18-8.85a1,1,0,0,0-.72-.55L783,525.94a1,1,0,0,1-.51-1.68l7.13-6.7a1,1,0,0,0,.3-.86L788.43,507a1,1,0,0,1,1.43-1l8.58,4.71a1,1,0,0,0,.91,0l8.75-4.39A1,1,0,0,1,809.5,507.4Z" transform="translate(0 0.1)" fill="#1b1026"/>
  <path d="M974.5,431.4,972.67,441a1,1,0,0,0,.26.87l6.89,6.95a1,1,0,0,1-.58,1.66l-9.7,1.23a1,1,0,0,0-.75.53L964.3,461a1,1,0,0,1-1.75,0l-4.18-8.85a1,1,0,0,0-.72-.55L948,449.94a1,1,0,0,1-.51-1.68l7.13-6.7a1,1,0,0,0,.3-.86L953.43,431a1,1,0,0,1,1.43-1l8.58,4.71a1,1,0,0,0,.91,0l8.75-4.39A1,1,0,0,1,974.5,431.4Z" transform="translate(0 0.1)" fill="#1b1026"/>
  <path d="M1089.5,634.4l-1.83,9.62a1,1,0,0,0,.26.87l6.89,7a1,1,0,0,1-.58,1.66l-9.7,1.23a1,1,0,0,0-.75.53L1079.3,664a1,1,0,0,1-1.75,0l-4.18-8.85a1,1,0,0,0-.72-.55l-9.66-1.58a1,1,0,0,1-.51-1.68l7.13-6.7a1,1,0,0,0,.3-.86l-1.48-9.68a1,1,0,0,1,1.43-1l8.58,4.71a1,1,0,0,0,.91,0l8.75-4.39A1,1,0,0,1,1089.5,634.4Z" transform="translate(0 0.1)" fill="#1b1026"/>
  <path d="M1273.5,555.4l-1.83,9.62a1,1,0,0,0,.26.87l6.89,7a1,1,0,0,1-.58,1.66l-9.7,1.23a1,1,0,0,0-.75.53L1263.3,585a1,1,0,0,1-1.75,0l-4.18-8.85a1,1,0,0,0-.72-.55l-9.66-1.58a1,1,0,0,1-.51-1.68l7.13-6.7a1,1,0,0,0,.3-.86l-1.48-9.68a1,1,0,0,1,1.43-1l8.58,4.71a1,1,0,0,0,.91,0l8.75-4.39A1,1,0,0,1,1273.5,555.4Z" transform="translate(0 0.1)" fill="#1b1026"/>
  <path d="M1150.5,326.4l-1.83,9.62a1,1,0,0,0,.26.87l6.89,6.95a1,1,0,0,1-.58,1.66l-9.7,1.23a1,1,0,0,0-.75.53L1140.3,356a1,1,0,0,1-1.75,0l-4.18-8.85a1,1,0,0,0-.72-.55l-9.66-1.58a1,1,0,0,1-.51-1.68l7.13-6.7a1,1,0,0,0,.3-.86l-1.48-9.68a1,1,0,0,1,1.43-1l8.58,4.71a1,1,0,0,0,.91,0l8.75-4.39A1,1,0,0,1,1150.5,326.4Z" transform="translate(0 0.1)" fill="#1b1026"/>
  <path d="M1195.5,223.4l-1.83,9.62a1,1,0,0,0,.26.87l6.89,7a1,1,0,0,1-.58,1.66l-9.7,1.23a1,1,0,0,0-.75.53L1185.3,253a1,1,0,0,1-1.75,0l-4.18-8.85a1,1,0,0,0-.72-.55l-9.66-1.58a1,1,0,0,1-.51-1.68l7.13-6.7a1,1,0,0,0,.3-.86l-1.48-9.68a1,1,0,0,1,1.43-1l8.58,4.71a1,1,0,0,0,.91,0l8.75-4.39A1,1,0,0,1,1195.5,223.4Z" transform="translate(0 0.1)" fill="#1b1026"/>
  <path d="M1123.5,89.4,1121.67,99a1,1,0,0,0,.26.87l6.89,7a1,1,0,0,1-.58,1.66l-9.7,1.23a1,1,0,0,0-.75.53L1113.3,119a1,1,0,0,1-1.75,0l-4.18-8.85a1,1,0,0,0-.72-.55l-9.66-1.58a1,1,0,0,1-.51-1.68l7.13-6.7a1,1,0,0,0,.3-.86L1102.43,89a1,1,0,0,1,1.43-1l8.58,4.71a1,1,0,0,0,.91,0l8.75-4.39A1,1,0,0,1,1123.5,89.4Z" transform="translate(0 0.1)" fill="#1b1026"/>
  <path d="M1202.24,20.5l-9.7,1.23a1,1,0,0,0-.75.53L1187.3,31a1,1,0,0,1-1.75,0l-4.18-8.85a1,1,0,0,0-.72-.55L1171,19.94a1,1,0,0,1-.51-1.68l7.13-6.7a1,1,0,0,0,.3-.86L1176.43,1a1,1,0,0,1,.54-1,.92.92,0,0,1,.84,0l0,0,8.58,4.71a1,1,0,0,0,.91,0L1196.1.35a1,1,0,0,1,1.4,1L1195.67,11a1,1,0,0,0,.26.87l6.89,7A1,1,0,0,1,1202.24,20.5Z" transform="translate(0 0.1)" fill="#1b1026"/>
  <path d="M1289.5,144.4l-1.83,9.62a1,1,0,0,0,.26.87l6.89,7a1,1,0,0,1-.58,1.66l-9.7,1.23a1,1,0,0,0-.75.53L1279.3,174a1,1,0,0,1-1.75,0l-4.18-8.85a1,1,0,0,0-.72-.55l-9.66-1.58a1,1,0,0,1-.51-1.68l7.13-6.7a1,1,0,0,0,.3-.86l-1.48-9.68a1,1,0,0,1,1.43-1l8.58,4.71a1,1,0,0,0,.91,0l8.75-4.39A1,1,0,0,1,1289.5,144.4Z" transform="translate(0 0.1)" fill="#1b1026"/>
  <path d="M434,207l-5.19,27.28a2.79,2.79,0,0,0,.75,2.47l19.53,19.74a2.77,2.77,0,0,1-1.62,4.7l-27.55,3.5a2.75,2.75,0,0,0-2.11,1.48l-12.74,24.67a2.78,2.78,0,0,1-5-.09l-11.84-25.12a2.77,2.77,0,0,0-2.06-1.55l-27.4-4.49a2.77,2.77,0,0,1-1.45-4.76l20.23-19a2.79,2.79,0,0,0,.84-2.44l-4.2-27.46a2.78,2.78,0,0,1,4.08-2.85l24.34,13.37a2.77,2.77,0,0,0,2.58.05L430.05,204A2.78,2.78,0,0,1,434,207Z" transform="translate(0 0.1)" fill="#1b1026"/>
  <path d="M252,63,246.83,90.3a2.79,2.79,0,0,0,.75,2.47l19.53,19.74a2.77,2.77,0,0,1-1.62,4.7l-27.55,3.5a2.75,2.75,0,0,0-2.11,1.48l-12.74,24.67a2.78,2.78,0,0,1-5-.09l-11.84-25.12a2.77,2.77,0,0,0-2.06-1.55l-27.4-4.49a2.77,2.77,0,0,1-1.45-4.76l20.23-19a2.79,2.79,0,0,0,.84-2.44l-4.2-27.46a2.78,2.78,0,0,1,4.08-2.85l24.34,13.37a2.77,2.77,0,0,0,2.58,0L248.05,60A2.78,2.78,0,0,1,252,63Z" transform="translate(0 0.1)" fill="#1b1026"/>
  <path d="M876,360l-5.19,27.28a2.79,2.79,0,0,0,.75,2.47l19.53,19.74a2.77,2.77,0,0,1-1.62,4.7l-27.55,3.5a2.75,2.75,0,0,0-2.11,1.48l-12.74,24.67a2.78,2.78,0,0,1-5-.09l-11.84-25.12a2.77,2.77,0,0,0-2.06-1.55l-27.4-4.49a2.77,2.77,0,0,1-1.45-4.76l20.23-19a2.79,2.79,0,0,0,.84-2.44l-4.2-27.46a2.78,2.78,0,0,1,4.08-2.85l24.34,13.37a2.77,2.77,0,0,0,2.58.05L872.05,357A2.78,2.78,0,0,1,876,360Z" transform="translate(0 0.1)" fill="#1b1026"/>
  <path d="M584.91,373.21l-3.24,17a1.75,1.75,0,0,0,.47,1.54l12.17,12.3a1.73,1.73,0,0,1-1,2.93l-17.16,2.17a1.74,1.74,0,0,0-1.32.93l-7.94,15.37a1.73,1.73,0,0,1-3.1-.06l-7.37-15.65a1.75,1.75,0,0,0-1.29-1L538.05,406a1.73,1.73,0,0,1-.9-3l12.6-11.85a1.73,1.73,0,0,0,.53-1.52l-2.62-17.1a1.73,1.73,0,0,1,2.54-1.78l15.17,8.33a1.74,1.74,0,0,0,1.6,0l15.46-7.77A1.73,1.73,0,0,1,584.91,373.21Z" transform="translate(0 0.1)" fill="#1b1026"/>
  <path d="M153.91,226.21l-3.24,17a1.75,1.75,0,0,0,.47,1.54l12.17,12.3a1.73,1.73,0,0,1-1,2.93l-17.16,2.17a1.74,1.74,0,0,0-1.32.93l-7.94,15.37a1.73,1.73,0,0,1-3.1-.06l-7.37-15.65a1.75,1.75,0,0,0-1.29-1L107.05,259a1.73,1.73,0,0,1-.9-3l12.6-11.85a1.73,1.73,0,0,0,.53-1.52l-2.62-17.1a1.73,1.73,0,0,1,2.54-1.78l15.17,8.33a1.74,1.74,0,0,0,1.6,0l15.46-7.77A1.73,1.73,0,0,1,153.91,226.21Z" transform="translate(0 0.1)" fill="#1b1026"/>
  <path d="M1034.91,298.21l-3.24,17a1.75,1.75,0,0,0,.47,1.54l12.17,12.3a1.73,1.73,0,0,1-1,2.93l-17.16,2.17a1.74,1.74,0,0,0-1.32.93l-7.94,15.37a1.73,1.73,0,0,1-3.1-.06l-7.37-15.65a1.75,1.75,0,0,0-1.29-1L988.05,331a1.73,1.73,0,0,1-.9-3l12.6-11.85a1.73,1.73,0,0,0,.53-1.52l-2.62-17.1a1.73,1.73,0,0,1,2.54-1.78l15.17,8.33a1.74,1.74,0,0,0,1.6,0l15.46-7.77A1.73,1.73,0,0,1,1034.91,298.21Z" transform="translate(0 0.1)" fill="#1b1026"/>
  <path d="M1247,354l-5.19,27.28a2.79,2.79,0,0,0,.75,2.47l19.53,19.74a2.77,2.77,0,0,1-1.62,4.7l-27.55,3.5a2.75,2.75,0,0,0-2.11,1.48l-12.74,24.67a2.78,2.78,0,0,1-5-.09l-11.84-25.12a2.77,2.77,0,0,0-2.06-1.55l-27.4-4.49a2.77,2.77,0,0,1-1.45-4.76l20.23-19a2.79,2.79,0,0,0,.84-2.44l-4.2-27.46a2.78,2.78,0,0,1,4.08-2.85l24.34,13.37a2.77,2.77,0,0,0,2.58.05L1243.05,351A2.78,2.78,0,0,1,1247,354Z" transform="translate(0 0.1)" fill="#1b1026"/>
  <path d="M1217,73l-5.19,27.28a2.79,2.79,0,0,0,.75,2.47l19.53,19.74a2.77,2.77,0,0,1-1.62,4.7l-27.55,3.5a2.75,2.75,0,0,0-2.11,1.48l-12.74,24.67a2.78,2.78,0,0,1-5-.09l-11.84-25.12a2.77,2.77,0,0,0-2.06-1.55l-27.4-4.49a2.77,2.77,0,0,1-1.45-4.76l20.23-19a2.79,2.79,0,0,0,.84-2.44l-4.2-27.46a2.78,2.78,0,0,1,4.08-2.85l24.34,13.37a2.77,2.77,0,0,0,2.58,0L1213.05,70A2.78,2.78,0,0,1,1217,73Z" transform="translate(0 0.1)" fill="#1b1026"/>
  <path d="M570.67,148.71l-39.85,18.45a4.35,4.35,0,0,0-2.48,3.24L521,213.68a4.39,4.39,0,0,1-7.54,2.25l-29.86-32.2a4.38,4.38,0,0,0-3.85-1.36l-43.45,6.35a4.39,4.39,0,0,1-4.47-6.48l21.4-38.35a4.39,4.39,0,0,0,.1-4.08l-19.46-39.36a4.39,4.39,0,0,1,4.78-6.25l43.08,8.5a4.4,4.4,0,0,0,3.91-1.16L517,70.86a4.39,4.39,0,0,1,7.42,2.62l5.23,43.6a4.38,4.38,0,0,0,2.32,3.36l38.88,20.4A4.39,4.39,0,0,1,570.67,148.71Z" transform="translate(0 0.1)" fill="#1b1026"/>
  <path d="M671.06,64.47,628.42,54a4.36,4.36,0,0,0-4,1L591.65,84.16a4.39,4.39,0,0,1-7.29-3l-3.21-43.79A4.4,4.4,0,0,0,579,33.94l-37.9-22.18a4.38,4.38,0,0,1,.56-7.84L551.26,0H667.57l-8.78,14.16a4.38,4.38,0,0,0-.29,4.07l17.62,40.22A4.38,4.38,0,0,1,671.06,64.47Z" transform="translate(0 0.1)" fill="#1b1026"/>
  <path d="M404.65,164.36l-43.18,8a4.38,4.38,0,0,0-3.2,2.52L340.36,215a4.39,4.39,0,0,1-7.86.3l-20.93-38.6a4.38,4.38,0,0,0-3.39-2.27l-43.67-4.65a4.38,4.38,0,0,1-2.71-7.38L292,130.53a4.37,4.37,0,0,0,1.11-3.93l-9.07-43a4.39,4.39,0,0,1,6.18-4.87L329.88,97.7a4.4,4.4,0,0,0,4.08-.16L372,75.64A4.38,4.38,0,0,1,378.55,80l-5.76,43.53a4.38,4.38,0,0,0,1.41,3.83l32.6,29.43A4.38,4.38,0,0,1,404.65,164.36Z" transform="translate(0 0.1)" fill="#1b1026"/>
  <path d="M1129.86,166l-39.44,19.3a4.41,4.41,0,0,0-2.41,3.3L1081.56,232a4.39,4.39,0,0,1-7.49,2.41l-30.55-31.55a4.4,4.4,0,0,0-3.88-1.27l-43.3,7.28a4.38,4.38,0,0,1-4.6-6.38l20.56-38.8a4.39,4.39,0,0,0,0-4.08L992,120.68a4.38,4.38,0,0,1,4.64-6.35l43.25,7.56a4.38,4.38,0,0,0,3.89-1.25l30.75-31.34a4.39,4.39,0,0,1,7.48,2.46l6.17,43.47a4.36,4.36,0,0,0,2.39,3.31l39.31,19.56A4.39,4.39,0,0,1,1129.86,166Z" transform="translate(0 0.1)" fill="#1b1026"/>
  <path d="M863,49.46l5,43.62a4.35,4.35,0,0,0,2.29,3.37l38.78,20.61a4.39,4.39,0,0,1-.23,7.86l-39.94,18.25a4.38,4.38,0,0,0-2.5,3.22l-7.61,43.25a4.39,4.39,0,0,1-7.55,2.21L821.57,159.5a4.38,4.38,0,0,0-3.85-1.37l-43.48,6.12a4.38,4.38,0,0,1-4.43-6.5l21.59-38.24a4.39,4.39,0,0,0,.12-4.08L772.25,76a4.39,4.39,0,0,1,4.82-6.22l43,8.71A4.38,4.38,0,0,0,824,77.32L855.6,46.81A4.38,4.38,0,0,1,863,49.46Z" transform="translate(0 0.1)" fill="#1b1026"/>
  <path d="M1355,263.81a4.37,4.37,0,0,0-.92,4l11.18,42.47a4.39,4.39,0,0,1-5.94,5.16l-40.5-17a4.39,4.39,0,0,0-4.07.36l-36.93,23.75a4.38,4.38,0,0,1-6.74-4.05l3.61-43.76a4.39,4.39,0,0,0-1.6-3.76l-34-27.78a4.39,4.39,0,0,1,1.77-7.67l42.73-10.08a4.4,4.4,0,0,0,3.08-2.68l15.92-40.93a4.38,4.38,0,0,1,7.83-.69l22.8,37.53a4.39,4.39,0,0,0,3.5,2.1l29.31,1.66V251Z" transform="translate(0 0.1)" fill="#1b1026"/>
</svg>
