<svg xmlns="http://www.w3.org/2000/svg" viewBox="0 0 625.55 472.21"><defs><style>.\31 52474ba-f9dc-4736-a289-b6bea71efbb0,.a6d9481c-07f9-49bc-a41d-db0c51ad8dea{fill:#fff;}.\31 52474ba-f9dc-4736-a289-b6bea71efbb0{stroke:#fff;}.\30 48dbc98-0c07-40cb-aa11-80c58e856d1c,.\31 52474ba-f9dc-4736-a289-b6bea71efbb0,.\32 5c2056b-2183-4129-9f4d-96df497debdf,.\33 2aff57f-b5a8-417e-be69-c188abb40687,.\35 0a239e0-6449-4007-a7e5-c646a0bb2fa4,.\36 8bae4c6-9042-4b38-be48-116f5c562cc7,.\36 8eae354-22ae-48d5-a9b5-7722af836e40,.\36 b634ef8-2249-4c8e-bed4-b1337cae8d6c,.b776c1dd-e717-4fb3-b87d-3500a2de5e21,.dcfdee8e-5e80-4bad-a795-7e8f19f1a384,.f1934313-f3ce-42fe-817e-2f188549f2be{strokeMiterlimit:10;}.\34 5c2e033-f979-46a5-8d58-b78d1b3e319c,.\35 0a239e0-6449-4007-a7e5-c646a0bb2fa4,.\36 8bae4c6-9042-4b38-be48-116f5c562cc7,.c628066b-3566-4788-ba3f-920eb97f80f6{fill:#fee6ee;}.\30 48dbc98-0c07-40cb-aa11-80c58e856d1c,.\31 736b73a-19aa-4bee-ad74-9c25c633bec1,.\32 5c2056b-2183-4129-9f4d-96df497debdf,.\32 921ca91-d202-426f-91af-1c190a92eb30,.\33 2aff57f-b5a8-417e-be69-c188abb40687,.\33 f472589-cc45-4586-8ca9-4e06a6eef746,.\36 7a318a3-1bee-4206-9829-7b3a718b4537,.\36 b634ef8-2249-4c8e-bed4-b1337cae8d6c,.dcfdee8e-5e80-4bad-a795-7e8f19f1a384,.f1934313-f3ce-42fe-817e-2f188549f2be{fill:none;}.\33 2aff57f-b5a8-417e-be69-c188abb40687{stroke:#d6f5e5;}.\33 2aff57f-b5a8-417e-be69-c188abb40687,.\36 7a318a3-1bee-4206-9829-7b3a718b4537{strokeWidth:5px;}.\31 736b73a-19aa-4bee-ad74-9c25c633bec1,.\32 5c2056b-2183-4129-9f4d-96df497debdf,.\32 921ca91-d202-426f-91af-1c190a92eb30,.\33 f472589-cc45-4586-8ca9-4e06a6eef746,.\34 5c2e033-f979-46a5-8d58-b78d1b3e319c,.\35 0a239e0-6449-4007-a7e5-c646a0bb2fa4,.\36 8bae4c6-9042-4b38-be48-116f5c562cc7,.\36 8eae354-22ae-48d5-a9b5-7722af836e40,.\36 b634ef8-2249-4c8e-bed4-b1337cae8d6c,.b776c1dd-e717-4fb3-b87d-3500a2de5e21,.dcfdee8e-5e80-4bad-a795-7e8f19f1a384,.f1934313-f3ce-42fe-817e-2f188549f2be{stroke:#372744;}.\31 736b73a-19aa-4bee-ad74-9c25c633bec1,.\32 5c2056b-2183-4129-9f4d-96df497debdf,.\32 921ca91-d202-426f-91af-1c190a92eb30,.\34 5c2e033-f979-46a5-8d58-b78d1b3e319c,.\35 0a239e0-6449-4007-a7e5-c646a0bb2fa4,.\36 7a318a3-1bee-4206-9829-7b3a718b4537,.\36 8bae4c6-9042-4b38-be48-116f5c562cc7,.\36 b634ef8-2249-4c8e-bed4-b1337cae8d6c,.dcfdee8e-5e80-4bad-a795-7e8f19f1a384{strokeLinecap:round;}.\31 736b73a-19aa-4bee-ad74-9c25c633bec1,.\32 5c2056b-2183-4129-9f4d-96df497debdf{strokeWidth:7px;}.\36 ee3067f-1461-4f84-b34a-2ff830fbbfe3{fill:#fab0bf;}.dcfdee8e-5e80-4bad-a795-7e8f19f1a384{strokeWidth:5.95px;}.\36 8bae4c6-9042-4b38-be48-116f5c562cc7{strokeWidth:5.07px;}.\35 0a239e0-6449-4007-a7e5-c646a0bb2fa4{strokeWidth:3.29px;}.\30 48dbc98-0c07-40cb-aa11-80c58e856d1c,.\36 7a318a3-1bee-4206-9829-7b3a718b4537{stroke:#fcf58d;}.\31 736b73a-19aa-4bee-ad74-9c25c633bec1,.\32 921ca91-d202-426f-91af-1c190a92eb30,.\33 f472589-cc45-4586-8ca9-4e06a6eef746,.\34 5c2e033-f979-46a5-8d58-b78d1b3e319c,.\36 7a318a3-1bee-4206-9829-7b3a718b4537{strokeLinejoin:round;}.\30 48dbc98-0c07-40cb-aa11-80c58e856d1c,.\32 921ca91-d202-426f-91af-1c190a92eb30,.\33 f472589-cc45-4586-8ca9-4e06a6eef746,.\36 b634ef8-2249-4c8e-bed4-b1337cae8d6c,.f1934313-f3ce-42fe-817e-2f188549f2be{strokeWidth:4px;}.b776c1dd-e717-4fb3-b87d-3500a2de5e21,.e1c4c07b-0847-4641-a225-4f4dd27d0e55{fill:#372744;}.\36 8eae354-22ae-48d5-a9b5-7722af836e40{fill:#fcf58d;strokeWidth:3.62px;}.\34 5c2e033-f979-46a5-8d58-b78d1b3e319c{strokeWidth:3.44px;}</style></defs><title>tslogo</title><g id="7f464afe-859b-4283-939c-22923ae82cb5" data-name="Layer 2"><path class="152474ba-f9dc-4736-a289-b6bea71efbb0" d="M397.68,190.65l42.63,12.79c6.83,2.05,14,4.11,21,2.86,9.62-1.73,17-9.26,24-16,53.46-51.24,134.44-77.52,204.26-52.9,21.81,7.7,42.31,20,65.25,23,24.93,3.17,49.67-5.14,73.89-11.86,14.37-4,29.44-7.47,44.08-4.64s28.76,13.59,30.88,28.36c1.9,13.2-5.81,25.74-13.81,36.42a342.68,342.68,0,0,1-45.69,49.93c-5.1,4.58-10.5,9.2-13.34,15.44s-2.79,13.14-2.73,19.88q.18,22.08.37,44.16c.07,8.46.24,17.32,4.27,24.77,7.47,13.78,24.95,17.85,40.3,21s32.86,8.76,38.41,23.43c2.17,5.74,2.08,12.06,1.81,18.2-.53,12.38-1.68,24.74-3.44,37-.56,3.91-1.4,8.21-4.53,10.62-2.64,2-6.21,2.17-9.53,2.21a591.76,591.76,0,0,1-90.11-5.85c-17-2.42-36.09-5.09-49.82,5.21-5,3.78-8.82,9-13.69,13-13.9,11.38-33.7,10.87-50.91,16-11.38,3.42-21.82,9.44-33.07,13.25-25.7,8.73-54.17,5.41-79.95-3.09s-49.6-21.93-74-33.8c-3.89-1.9-7.94-3.79-12.26-3.94-8.85-.31-16.07,6.49-23.27,11.65-26.41,19-61.56,18.61-94.05,17.51-8.62-.29-18.11-.94-24.24-7-8.3-8.2-6.33-22.13-1.77-32.87,13.61-32.11,43.13-54,67.29-79.16,5-5.16,10-11,10.82-18.1.67-5.51-1.28-11-3.19-16.18-9.39-25.59-19.78-52.57-41.39-69.17-9.37-7.2-20.42-12-29.56-19.55-13.82-11.35-33.08-39.66-25.13-58.67C338.91,177.16,376.11,184.18,397.68,190.65Z" transform="translate(-309.02 -88.69)"/><path class="a6d9481c-07f9-49bc-a41d-db0c51ad8dea" d="M480.94,202.55C473,192.14,462.82,188,450.69,184c-11.05-3.67-22.1-7.32-33.24-10.72-22.51-6.89-46.31-14.43-70.07-10.45-13.79,2.31-26,8.84-31.42,22.26-4.29,10.59-7.46,22.85-6.87,34.34,1.25,24.32,16.48,43.45,35.3,57.46,10,7.45,21.09,13.37,31.93,19.52l36.21,20.51c7.06,4,17.26,1.91,21.21-5.56s2-16.94-5.56-21.2c-17.64-10-35.46-19.73-52.9-30.06-8.1-4.8-14.53-8.91-20.73-14.77q-2.07-2-4-4.05c-.72-.8-1.43-1.61-2.12-2.44,1.28,1.54-.39-.49-.53-.69a63.87,63.87,0,0,1-3.47-5.42c-.4-.7-.77-1.4-1.14-2.12s-1.49-3.29-.73-1.38a44.77,44.77,0,0,1-1.9-6.06c-.24-1-.47-2.07-.63-3.11.12.8.11,2.39,0-.63a40.65,40.65,0,0,1,1.44-12.66c.62-2.46,1.35-4.88,2.11-7.29.27-.85.55-1.69.83-2.53l.25-.74c.56-1.61.69-1.95.4-1-.39.1-2.94,2.41-.19.6,1.24-.82,2.27-1.1,4.86-1.83,6.67-1.86,16.12-1.59,22.63-.46a258.19,258.19,0,0,1,27.5,6.87c11.18,3.26,22.26,6.81,33.32,10.45,5,1.65,10,3.26,15,5,.93.32,1.87.65,2.79,1,1.5.59-1.29-.85,1,.54.83.49,1.7.93,2.51,1.47-2.35-1.58,1.45,1.77-.38-.63,5.07,6.64,13.34,10.16,21.2,5.56,6.54-3.82,10.68-14.52,5.56-21.21Z" transform="translate(-309.02 -88.69)"/><path class="a6d9481c-07f9-49bc-a41d-db0c51ad8dea" d="M402.76,307.38a79.08,79.08,0,0,1,3.06,18.56c.29,6.67-.72,13.4,0,20a47.56,47.56,0,0,0,2.12,10.64c.54,1.57,1.19,3.1,1.83,4.64l1.57,3.7c.73,1.67.88,2,.44,1.08a129.93,129.93,0,0,1,6,19.57c1.77,7.93,11.37,13.32,19.07,10.83a15.85,15.85,0,0,0,10.82-19.07,128.79,128.79,0,0,0-6-19.57c-2.16-5.45-5.1-10.65-5.08-15.34.08-14.79,0-28.87-3.93-43.32-2.1-7.83-11.14-13.39-19.07-10.83S400.51,299,402.76,307.38Z" transform="translate(-309.02 -88.69)"/><path class="a6d9481c-07f9-49bc-a41d-db0c51ad8dea" d="M423.19,372.31c-14.68,1.68-25.27,11.88-36,21.23a314.16,314.16,0,0,0-25.5,24.8c-16.94,18.47-34.35,40.17-34,66.62.17,12.92,4.59,25.58,13.5,35.08s21.72,14.18,34.5,15.68,25.88-1.35,38-5.23c12.35-3.94,24.51-8.61,36.51-13.52,26.38-10.78,54.09-22.11,74.38-42.85a15.5,15.5,0,0,0-21.92-21.92c-1.8,1.83-3.63,3.61-5.56,5.3a46.58,46.58,0,0,1-4.17,3.42,142.92,142.92,0,0,1-12.95,8.3,294.86,294.86,0,0,1-27.64,13.45c-18.65,8.19-39.62,17.33-60.25,21.52a29.62,29.62,0,0,1-5.87.83,55.79,55.79,0,0,1-6.72.06c-1-.06-2-.12-3.06-.26,2.61.36,0-.06-.42-.18-1.23-.35-2.48-.59-3.71-1-.82-.24-3.29-1.1-1.29-.28a30.85,30.85,0,0,1-5.91-3.31c-2-1.42,1.38,1.35-.39-.39a33.77,33.77,0,0,1-2.63-2.72c1.58,1.95-1.41-2.59-1.69-3.1.3.55.83,2.58-.16-.43-.48-1.44-.83-2.87-1.21-4.33-.13-.5-.41-3-.14-.36-.11-1-.17-2-.2-3a44.59,44.59,0,0,1,.23-6.11c-.3,2.78.14-.47.29-1.16.22-1,.46-2,.74-2.95s.64-2.12,1-3.17c.28-.8.57-1.6.89-2.39-.33.83-.29.77.15-.2,4.44-9.39,9.36-15.51,15.71-22.84a310.66,310.66,0,0,1,24.77-25.51q6.22-5.73,12.75-11.1c1.84-1.51,4.83-4,6-4.83-1.39,1,3-2,2.43-1.65,1.5-1.11,1.51-.73-.44-.5,8-.92,15.91-6.47,15.5-15.5-.34-7.61-6.87-16.49-15.5-15.5Z" transform="translate(-309.02 -88.69)"/><path class="a6d9481c-07f9-49bc-a41d-db0c51ad8dea" d="M485.32,218.14c5.41-3,9.05-7.46,12.58-12.42a73.91,73.91,0,0,1,7.65-9.67,132.08,132.08,0,0,1,10.33-9.89c4.08-3.52,6.61-5.47,10.14-8.1,8.15-6,16.36-12.35,25.24-17.28,8.43-4.68,18.32-7,28.56-9.73,5.19-1.38,10.38-2.73,15.61-3.94,4.82-1.11,11.74-2.51,15.38-3,11.12-1.55,22.38-1.07,33.49.26a286.8,286.8,0,0,1,56.23,12.84q3.93,1.35,7.83,2.83l3.09,1.21a18.24,18.24,0,0,1,2.43,1c5,2.21,10,4.61,14.88,7.24q6.9,3.74,13.45,8.06,3.45,2.29,6.77,4.74c.37.27,3.09,2.39,1.47,1.1,1.3,1,2.57,2.1,3.85,3.17,6.4,5.38,15.64,6.28,21.92,0,5.53-5.53,6.43-16.51,0-21.92-33.4-28.08-75.06-42.79-117.77-49.33-12.64-1.93-25.44-3.68-38.26-3a196.61,196.61,0,0,0-35.76,5.61c-11.28,2.71-22.8,5.43-33.71,9.42-11.58,4.23-21.45,10.42-31.42,17.54s-20.07,14.42-29.11,22.78a115.29,115.29,0,0,0-12,12.89C476,183.24,474,186,472,188.89c.12-.16-2.35,3.75-1.34,1.91q.92-1.23-.66.57c1.36-.92,1.26-.92-.28,0-7.32,4-9.72,14.1-5.56,21.21a15.76,15.76,0,0,0,21.21,5.56Z" transform="translate(-309.02 -88.69)"/><path class="a6d9481c-07f9-49bc-a41d-db0c51ad8dea" d="M775.2,189.42A155.41,155.41,0,0,1,821.37,168q6.32-1.77,12.76-3.06c4.34-.87,7.72-1.41,10.58-1.73,4-.45,8-.77,12-.84,1.81,0,3.63,0,5.44.06q1.54.06,3.09.18c.52,0,3.91.5,1.24.07a53.7,53.7,0,0,1,10.26,2.64c-2.29-.86,0,0,.41.22.88.48,1.76.92,2.62,1.44.64.38,1.27.8,1.89,1.22.87.61.83.57-.13-.13l1.2,1.08a29.09,29.09,0,0,1,2.23,2.35c-.23-.31-1-1.28-.08.15,1.32,2.12-.38-1.7.4.71a13.12,13.12,0,0,1,.58,2.38c-.28-2.48-.19.43-.26.69.18-.68.64-2.52-.12.71-.26,1.08-.59,2.13-.89,3.2-.09.35-.86,2.45-.28,1-3.39,8.29-9.21,16-14.53,23.12-4.29,5.74-10.48,12.95-16,19.15-14.87,16.84-30,33.43-45.08,50.12-5.6,6.22-6.13,15.79,0,21.92,5.69,5.69,16.3,6.25,21.92,0C846,277.74,861.35,261,876.4,243.86c14.2-16.11,29.54-33.58,37.27-53.91,4.29-11.28,4.09-24.22-2.39-34.65-6-9.64-15.78-16.05-26.25-19.89-19.08-7-41.48-4.1-60.85,0a187.15,187.15,0,0,0-64.63,27.27c-7,4.63-10,13.68-5.56,21.2,4,6.92,14.21,10.22,21.21,5.56Z" transform="translate(-309.02 -88.69)"/><path class="a6d9481c-07f9-49bc-a41d-db0c51ad8dea" d="M808.68,270.11c-1.83,17.59,5.58,33.95,10.07,50.54a182.07,182.07,0,0,1,6.53,47.18L833,354.45c-9.55,6.17-14.93,17.78-11.1,29,2.61,7.66,10.76,13.51,19.06,10.83,7.6-2.46,13.63-10.85,10.83-19.07q-.81-2.62-.12.24a5.79,5.79,0,0,1-2,5q-3.14,2.44,2.09-1.61a15.49,15.49,0,0,0,4-6.84c1.46-5.29.4-11.9,0-17.32a237.82,237.82,0,0,0-4.23-30.29A276.27,276.27,0,0,0,844,297.08c-3.1-9.81-5.31-17.08-4.28-27,.84-8.09-7.73-15.84-15.5-15.5-9.12.41-14.6,6.84-15.5,15.5Z" transform="translate(-309.02 -88.69)"/><path class="a6d9481c-07f9-49bc-a41d-db0c51ad8dea" d="M488.28,487.57C518.9,517,559.46,534.71,601,542c12.12,2.12,24.17,3.33,36.42,1.9,12.5-1.45,24.78-4.31,37-7.22a205.24,205.24,0,0,0,62.12-26c10.42-6.56,20.36-13.86,30.12-21.36,11.4-8.75,23.55-17,24.08-32.84.27-8.11-7.32-15.86-15.5-15.5a15.82,15.82,0,0,0-15.5,15.5,6.17,6.17,0,0,1,.8-2.36c-.75,2.1-.82,1.25-.12.43a34.63,34.63,0,0,1-4.44,4.12c-4.13,3.38-6.27,4.91-10.57,8.15-7.73,5.82-15.61,11.44-23.78,16.62-17.39,11-32.83,17.77-52.7,22.66-19.64,4.84-38.78,9.44-57.82,6.31a243,243,0,0,1-27.29-6.17c-4.23-1.21-8.44-2.54-12.6-4-2.08-.72-4.15-1.48-6.2-2.26L562,498.76c-.56-.22-3.42-1.42-1.62-.65a189.14,189.14,0,0,1-27.57-14.59q-3.1-2-6.12-4.12c-.89-.62-1.78-1.26-2.66-1.91-.46-.34-2.93-2.21-1.43-1a156.46,156.46,0,0,1-12.35-10.8,15.79,15.79,0,0,0-21.92,0c-5.85,5.84-6.06,16.1,0,21.92Z" transform="translate(-309.02 -88.69)"/><path class="a6d9481c-07f9-49bc-a41d-db0c51ad8dea" d="M771.36,467.47c19.3,8.46,39.1,12.91,60,15.44,19.22,2.34,39.44,4.39,58.61.81,18.9-3.54,36.2-16.12,42.57-34.65,6.84-20-4.28-40.14-18.23-53.87-14.94-14.71-33.73-24.37-52.65-32.87-7.38-3.32-17-2.38-21.21,5.56-3.58,6.77-2.34,17.66,5.56,21.21,13.65,6.13,27.53,12.63,39.45,21.81-1.16-.89,2.17,1.84,2.66,2.27q1.89,1.63,3.67,3.36c1.4,1.35,2.76,2.74,4.06,4.18.53.59,1.05,1.2,1.57,1.8,1.7,2-1-1.48.53.64a48.28,48.28,0,0,1,3,4.71c.31.54,1.9,4,1.13,2a29.22,29.22,0,0,1,1.49,5.24c.35,1.87,0,0-.06-.26,0,1.05,0,2.08,0,3.13.09-2.86-.38,1.14-.66,2.16-.46,1.67.13-.11.27-.41-.29.64-.63,1.27-1,1.89s-3,4.12-1.26,2.13c-1.12,1.29-2.33,2.45-3.56,3.62-1.78,1.7,1.7-1.12-.3.32-.59.42-1.2.84-1.82,1.23-1.24.79-2.53,1.47-3.83,2.16-.47.25-2.71,1.07-.3.18-.83.31-1.67.59-2.51.86-2,.62-4,1.06-6,1.53-4.91,1.17-14.56,1-21.57.68-8.1-.39-16.2-1-24.27-1.82a202.67,202.67,0,0,1-25.28-4.15A153.76,153.76,0,0,1,787,440.7c-7.4-3.24-17-2.42-21.21,5.56-3.54,6.72-2.36,17.73,5.56,21.21Z" transform="translate(-309.02 -88.69)"/><path class="a6d9481c-07f9-49bc-a41d-db0c51ad8dea" d="M458.14,177.77c-1.08-4.62-3.19-11.82,1.73-15,2-1.3,4.21-1.73,6-3.53a20.9,20.9,0,0,0,4-6.61,44.77,44.77,0,0,1,21.72-23,6.06,6.06,0,0,0,2.76-6.78,13.09,13.09,0,0,0-4.81-6.78c-2.21-1.73-4.15-2.48-4.71-5.41-1.14-6,.52-11.8-1.66-17.69s-9.33-5.54-11.57,0a39.23,39.23,0,0,1-14.32,17.63c-3.1,2.07-7,3.29-8.28,7.15s.78,6.84,3,9.72c4.36,5.77,7,14.31,3.55,21.27a5.56,5.56,0,0,1-1.33,2l2,1.46c.5-.2-.14-5.1-.26-5.63a9.91,9.91,0,0,0-6.8-7.43c-3.26-1.18-6.29,1.38-7.38,4.2a64.21,64.21,0,0,1-7.54,13.83c-1.72,2.45-.64,7,2.15,8.21l8.25,3.66c7,3.11,13.11-7.23,6.06-10.36L442.43,155l2.15,8.21a76.12,76.12,0,0,0,8.75-16.69L446,150.71c-1.48-2-2.06-2-1.73,0a7.61,7.61,0,0,0,.07,2.13,10.74,10.74,0,0,0,1.12,4.27,9.81,9.81,0,0,0,6.75,5.2c6.32,1.35,11.59-2.92,14.07-8.41a32.09,32.09,0,0,0,2.13-18.71,33.3,33.3,0,0,0-2.82-8.7,29.83,29.83,0,0,0-2.27-4c-.6-.82-1.21-1.63-1.84-2.43-1.11-1.28-1.32-1.55-.64-.81L459,123.57c1.68-1.77,4.81-2.92,6.81-4.42a50.42,50.42,0,0,0,7.39-6.69,55.09,55.09,0,0,0,9.94-16.32H471.6c2.1,5.67.35,11.83,1.65,17.69a16.39,16.39,0,0,0,3.52,7.25c1.17,1.34,5.54,3.46,6,4.94l2.76-6.77c-12.61,6.22-20.76,16.3-26.64,28.78-1.56,3.32-3.36,3.22-6.2,5.1a16.76,16.76,0,0,0-5.77,6.8c-3.22,6.74-2,14-.35,21,1.76,7.52,13.33,4.34,11.57-3.19Z" transform="translate(-309.02 -88.69)"/><path class="a6d9481c-07f9-49bc-a41d-db0c51ad8dea" d="M446.62,137.85c9.66,0,9.67-15,0-15s-9.66,15,0,15Z" transform="translate(-309.02 -88.69)"/><path class="a6d9481c-07f9-49bc-a41d-db0c51ad8dea" d="M773.89,509.79a32.65,32.65,0,0,0,23.42-22.61c2-6.81-8.62-9.72-10.6-2.93A21.49,21.49,0,0,1,771,499.18c-6.87,1.69-4,12.3,2.92,10.61Z" transform="translate(-309.02 -88.69)"/><path class="a6d9481c-07f9-49bc-a41d-db0c51ad8dea" d="M757.33,528.64c8.36,0,8.37-13,0-13s-8.38,13,0,13Z" transform="translate(-309.02 -88.69)"/><path class="a6d9481c-07f9-49bc-a41d-db0c51ad8dea" d="M767.18,560.9c16.73,0,16.75-26,0-26s-16.76,26,0,26Z" transform="translate(-309.02 -88.69)"/><path class="a6d9481c-07f9-49bc-a41d-db0c51ad8dea" d="M786.38,484.4c-3.84,13.76,8.86,22.43,18,30.12,5.38,4.53,13.2-3.21,7.78-7.78-5-4.24-17.37-11.48-15.16-19.42,1.91-6.83-8.7-9.74-10.6-2.92Z" transform="translate(-309.02 -88.69)"/><path class="a6d9481c-07f9-49bc-a41d-db0c51ad8dea" d="M805.26,506.47c-16.75,7.06-23.16,22-28,38.47-2,6.8,8.61,9.71,10.61,2.92,3.54-12,7.72-25.47,20.32-30.79,6.43-2.71,3.6-13.35-2.92-10.6Z" transform="translate(-309.02 -88.69)"/><path class="a6d9481c-07f9-49bc-a41d-db0c51ad8dea" d="M771.12,508.89c4.06,4.11,4.56,9.92,4.45,15.43-.13,6.93-.79,13.58.4,20.48s11.8,4,10.61-2.93c-2.44-14.15,3.78-29.13-7.68-40.76-5-5.05-12.75,2.73-7.78,7.78Z" transform="translate(-309.02 -88.69)"/></g><g id="c61def9e-0605-46fc-ac43-2f3574d56b8d" data-name="Layer 1"><circle class="c628066b-3566-4788-ba3f-920eb97f80f6" cx="320.48" cy="236.81" r="186"/><path class="32aff57f-b5a8-417e-be69-c188abb40687" d="M784.5,192.78a471,471,0,0,1,44-17.32c9.58-3.13,19.65-6.23,29.78-6.8,4.52-.25,11.73-.23,13.62,5,2.41,6.6-4.45,15.17-8,19.95-10.41,13.81-23.48,25.73-36.39,37.13" transform="translate(-309.02 -88.69)"/><path class="25c2056b-2183-4129-9f4d-96df497debdf" d="M503.18,464.48a187.81,187.81,0,0,0,268.87-15.84" transform="translate(-309.02 -88.69)"/><path class="25c2056b-2183-4129-9f4d-96df497debdf" d="M805,393.86c-.16.41-.32.82-.49,1.23a186.77,186.77,0,0,1-10.16,21.5" transform="translate(-309.02 -88.69)"/><path class="25c2056b-2183-4129-9f4d-96df497debdf" d="M449.83,272.47A187.45,187.45,0,0,1,459.92,246q3.9-8.27,8.57-16.11a183.39,183.39,0,0,1,11.07-16.55,188,188,0,0,1,289.58-13.58,184.33,184.33,0,0,1,12.6,15.47c.3.4.6.81.89,1.22" transform="translate(-309.02 -88.69)"/><circle class="6ee3067f-1461-4f84-b34a-2ff830fbbfe3" cx="320.48" cy="236.81" r="159"/><path class="dcfdee8e-5e80-4bad-a795-7e8f19f1a384" d="M773.53,395.84q-3.12,6.39-6.79,12.47" transform="translate(-309.02 -88.69)"/><path class="dcfdee8e-5e80-4bad-a795-7e8f19f1a384" d="M530.25,450.71h0a159.74,159.74,0,0,0,212.09-11.35" transform="translate(-309.02 -88.69)"/><path class="dcfdee8e-5e80-4bad-a795-7e8f19f1a384" d="M754.74,226.15A159.66,159.66,0,0,0,496,238.8a160.06,160.06,0,0,0-19,40.77" transform="translate(-309.02 -88.69)"/><ellipse class="68bae4c6-9042-4b38-be48-116f5c562cc7" cx="702.5" cy="183.5" rx="13.19" ry="21.7" transform="translate(-50.38 669.41) rotate(-66.95)"/><ellipse class="50a239e0-6449-4007-a7e5-c646a0bb2fa4" cx="661.76" cy="168.84" rx="10.91" ry="11.06" transform="translate(35.66 685.03) rotate(-76.65)"/><path class="32aff57f-b5a8-417e-be69-c188abb40687" d="M433.52,410.55c-44.4,36.53-69,64.35-62.73,74.32,6.62,10.6,46.69-1.22,104.53-28.46" transform="translate(-309.02 -88.69)"/><path class="67a318a3-1bee-4206-9829-7b3a718b4537" d="M428.5,282.82A502.19,502.19,0,0,1,365,242a55,55,0,0,1-20-23,8.06,8.06,0,0,1,3-9c7-4,15-4,23-3,26,3,51,8,76.2,16.56" transform="translate(-309.02 -88.69)"/><line class="048dbc98-0c07-40cb-aa11-80c58e856d1c" x1="245.36" y1="257.6" x2="245.35" y2="257.6"/><path class="67a318a3-1bee-4206-9829-7b3a718b4537" d="M822.71,385.58C867,412.42,892,434,887.7,444.17c-4.79,11.26-44.58,6.27-103.8-10.76l-2.4-.69q-12.53-3.63-26.13-8c-14.81-4.71-30.51-10-46.91-15.87h0" transform="translate(-309.02 -88.69)"/><path class="1736b73a-19aa-4bee-ad74-9c25c633bec1" d="M795.57,209c15.86-7,32-13.61,48.67-18.42-6.46,7.14-13.4,13.83-20.5,20.33" transform="translate(-309.02 -88.69)"/><path class="1736b73a-19aa-4bee-ad74-9c25c633bec1" d="M437.57,433c-16.87,14.39-28.31,25.57-35.73,33.77a362.14,362.14,0,0,0,39.24-14.37" transform="translate(-309.02 -88.69)"/><path class="25c2056b-2183-4129-9f4d-96df497debdf" d="M547.06,441.78h0q-8.52,4.57-16.8,8.92-13,6.78-25.33,12.9l-1.74.87c-11.92,5.89-23.36,11.28-34.2,16.12-26,11.6-47.4,19.51-63.66,23.5-4.66,1.14-12.88,3.16-21.52,3.16-10,0-20.52-2.7-26.7-12.59-11.51-18.44,6.08-39.53,12.7-47.47,10.73-12.85,27.24-28.62,49.08-46.87q5.4-4.51,11.14-9.15" transform="translate(-309.02 -88.69)"/><path class="1736b73a-19aa-4bee-ad74-9c25c633bec1" d="M440,240.19C419,235,399,229,378.3,226.61c12.81,10.36,3.28.41,0,0C391.11,237,405,246,419.08,254.57q8.73,5.35,17.62,10.47" transform="translate(-309.02 -88.69)"/><path class="1736b73a-19aa-4bee-ad74-9c25c633bec1" d="M745.34,401.36C782,414,819,425,858.19,430.77c-13.42-10.84-5.65-.71,0,0-13.42-10.84-28-20.22-42.76-29.18" transform="translate(-309.02 -88.69)"/><path class="25c2056b-2183-4129-9f4d-96df497debdf" d="M850.53,379.91c15.12,9.79,27.28,18.7,36.28,26.59,7.77,6.81,28.42,24.91,19.91,44.91-3.14,7.38-8.84,11.72-15.3,14.21s-13.7,3.15-19.89,3.15c-4.4,0-8.28-.32-11-.56-16.68-1.41-39.07-5.9-66.54-13.33q-10.6-2.86-22-6.24l-2.5-.75c-8.77-2.63-17.86-5.48-27.2-8.53-21.21-6.93-43.76-14.89-67.15-23.7" transform="translate(-309.02 -88.69)"/><path class="e1c4c07b-0847-4641-a225-4f4dd27d0e55" d="M532,401.67l-.57-4.61,15.16-1.9a2.51,2.51,0,0,0,1.76-1,3,3,0,0,0,.47-2.29,2.69,2.69,0,0,0-3-2.57l-3.32.42a12.81,12.81,0,0,1-5.27-.39,12.3,12.3,0,0,1-4.43-2.39,13.33,13.33,0,0,1-3.26-4.13,16.43,16.43,0,0,1-1.7-5.66,17.27,17.27,0,0,1,.19-5.87,13.3,13.3,0,0,1,2-4.76,11.38,11.38,0,0,1,3.62-3.35,13,13,0,0,1,5-1.65l14.77-1.85.58,4.62-14.78,1.85a8.31,8.31,0,0,0-6,3.34,9.77,9.77,0,0,0-1.52,7.18,11,11,0,0,0,1.18,3.87,9.05,9.05,0,0,0,2.26,2.76,8.46,8.46,0,0,0,3.11,1.57,9.17,9.17,0,0,0,3.63.24l3.13-.39a5.87,5.87,0,0,1,2.61.27,7.76,7.76,0,0,1,2.41,1.31,8.31,8.31,0,0,1,1.89,2.17,7.15,7.15,0,0,1,1,2.89,7.91,7.91,0,0,1-1.25,5.64,6.15,6.15,0,0,1-4.51,2.77Zm.91,7.23-.58-4.61,15.23-1.91a9.71,9.71,0,0,0,3.59-1.15,8.24,8.24,0,0,0,2.71-2.36,9.52,9.52,0,0,0,1.56-3.41,12,12,0,0,0,.18-4.36,11.28,11.28,0,0,0-1.31-4.17,9.59,9.59,0,0,0-2.53-3,9.71,9.71,0,0,0-3.31-1.65,9.23,9.23,0,0,0-3.7-.27l-3.12.39a6.27,6.27,0,0,1-4.72-1.26,6.71,6.71,0,0,1-2.52-4.76,7.45,7.45,0,0,1,1-5.23,5.72,5.72,0,0,1,4.26-2.42l14.78-1.85.57,4.61-14.64,1.84a1.93,1.93,0,0,0-1.58.89,2.8,2.8,0,0,0-.29,1.65,2.41,2.41,0,0,0,.79,1.51,2,2,0,0,0,1.65.49l3.25-.41a13,13,0,0,1,5.37.42,12.78,12.78,0,0,1,4.65,2.49,14.63,14.63,0,0,1,3.44,4.32,16.63,16.63,0,0,1,1.8,5.9,17.82,17.82,0,0,1-.22,6.14,13.82,13.82,0,0,1-2.15,5,12.38,12.38,0,0,1-3.79,3.52,13,13,0,0,1-5.14,1.73Z" transform="translate(-309.02 -88.69)"/><path class="e1c4c07b-0847-4641-a225-4f4dd27d0e55" d="M585.4,397.65l.58,4.61-7.94,1q-6.51.81-10.69-3t-5.12-11.32l-3.73-29.87,3.84-.49,3.73,29.81c.46,3.72,1.64,6.47,3.54,8.23s4.51,2.44,7.85,2Zm-20.92-39.33,4-.5,1.08,8.6L581.05,365l.58,4.62-15.49,1.93ZM582,372.14l.57,4.62L571,378.2l1.2,9.57a4.6,4.6,0,0,0,1.3,3,3.94,3.94,0,0,0,3.12.62l7.88-1,.58,4.62-7.94,1q-4.17.53-6.3-1.73a10.65,10.65,0,0,1-2.63-6.17l-1.75-14.05Z" transform="translate(-309.02 -88.69)"/><path class="e1c4c07b-0847-4641-a225-4f4dd27d0e55" d="M598.58,358.73q-9.9,1.25-8.45,12.74l3.72,29.81-3.9.49L586.22,372q-1-7.79,2.15-12.4t9.63-5.44l8.14-1,.57,4.62Zm.9,7.23a4,4,0,0,0-2.91,1.31,5.25,5.25,0,0,0-.39,3.44l3.73,29.81-4,.5-3.73-29.81q-.62-4.89,1.25-7.15a8,8,0,0,1,5.45-2.71l8.13-1,.58,4.62Z" transform="translate(-309.02 -88.69)"/><path class="e1c4c07b-0847-4641-a225-4f4dd27d0e55" d="M632.58,396.43a18.32,18.32,0,0,1-14.92-4.63,22.12,22.12,0,0,1-5-6.76,28.4,28.4,0,0,1-2.63-9.14,28.07,28.07,0,0,1,.3-9.48,22.5,22.5,0,0,1,3.16-7.74,18.39,18.39,0,0,1,13.32-8.16l1.57-.2A18.41,18.41,0,0,1,643.32,355a22.36,22.36,0,0,1,5,6.72,30.55,30.55,0,0,1,2.33,18.63,22.11,22.11,0,0,1-3.16,7.77,18.28,18.28,0,0,1-5.62,5.49,18.57,18.57,0,0,1-7.7,2.68Zm-18.69-21a23.25,23.25,0,0,0,2.11,7.39,17.34,17.34,0,0,0,4,5.41,14.66,14.66,0,0,0,5.47,3.09,15.33,15.33,0,0,0,6.51.51l1.57-.19a15.22,15.22,0,0,0,6.11-2.1,14.72,14.72,0,0,0,4.55-4.34,17.31,17.31,0,0,0,2.56-6.23,23.58,23.58,0,0,0,.23-7.69,23.11,23.11,0,0,0-2.11-7.35,17.52,17.52,0,0,0-4-5.38,14.8,14.8,0,0,0-5.47-3.09,15.43,15.43,0,0,0-6.45-.52l-1.56.2a15.42,15.42,0,0,0-6.18,2.1,14.72,14.72,0,0,0-4.55,4.34,17.39,17.39,0,0,0-2.56,6.2A22.79,22.79,0,0,0,613.89,375.42Zm17.79,13.85a13.16,13.16,0,0,1-5.5-.43,12.39,12.39,0,0,1-4.73-2.62,15.3,15.3,0,0,1-3.49-4.63,19.86,19.86,0,0,1-1.86-6.45,19.38,19.38,0,0,1,.23-6.63,15.07,15.07,0,0,1,2.24-5.35,12.32,12.32,0,0,1,3.93-3.71,13.2,13.2,0,0,1,5.23-1.77l1.56-.2a13.21,13.21,0,0,1,5.48.43,12.61,12.61,0,0,1,4.69,2.63,15.3,15.3,0,0,1,3.49,4.63,19.73,19.73,0,0,1,1.85,6.38,19.5,19.5,0,0,1-.22,6.7,15.12,15.12,0,0,1-2.24,5.36,12.59,12.59,0,0,1-3.89,3.7,13.11,13.11,0,0,1-5.2,1.77Zm1-4.8a9.31,9.31,0,0,0,6.64-3.7q2.36-3.16,1.65-8.74t-3.77-8a9.38,9.38,0,0,0-7.32-2l-1.56.2a9.39,9.39,0,0,0-6.65,3.66c-1.57,2.08-2.12,5-1.65,8.7s1.71,6.41,3.75,8.06a9.29,9.29,0,0,0,7.35,2Z" transform="translate(-309.02 -88.69)"/><path class="e1c4c07b-0847-4641-a225-4f4dd27d0e55" d="M656.54,386.09l-.58-4.61,15.17-1.9a2.51,2.51,0,0,0,1.75-1,3,3,0,0,0,.48-2.3,2.71,2.71,0,0,0-1.12-2.06,2.75,2.75,0,0,0-1.85-.51l-3.32.42a12.82,12.82,0,0,1-5.27-.39,12.36,12.36,0,0,1-4.43-2.38,13.65,13.65,0,0,1-3.26-4.14,16.65,16.65,0,0,1-1.7-5.66,17.46,17.46,0,0,1,.19-5.86,13.46,13.46,0,0,1,2-4.77,11.35,11.35,0,0,1,3.61-3.35,13,13,0,0,1,5-1.65l14.78-1.84.57,4.61-14.77,1.85a8.31,8.31,0,0,0-6,3.34,9.78,9.78,0,0,0-1.51,7.18A10.65,10.65,0,0,0,657.5,365a8.69,8.69,0,0,0,2.26,2.76,8.42,8.42,0,0,0,3.1,1.57,9.43,9.43,0,0,0,3.64.25l3.12-.4a6.14,6.14,0,0,1,2.61.27,7.86,7.86,0,0,1,2.41,1.31,8,8,0,0,1,1.89,2.17,7.15,7.15,0,0,1,1,2.89,7.89,7.89,0,0,1-1.24,5.64,6.17,6.17,0,0,1-4.51,2.77Zm.9,7.23-.58-4.61,15.23-1.9a10.14,10.14,0,0,0,3.6-1.15,8.37,8.37,0,0,0,2.71-2.37,9.6,9.6,0,0,0,1.55-3.41,11.77,11.77,0,0,0,.19-4.36,11.48,11.48,0,0,0-1.32-4.17,9.43,9.43,0,0,0-2.52-3,9.8,9.8,0,0,0-3.31-1.65,9.28,9.28,0,0,0-3.71-.27l-3.12.39a6.27,6.27,0,0,1-4.72-1.26,6.67,6.67,0,0,1-2.51-4.76,7.4,7.4,0,0,1,1-5.23,5.72,5.72,0,0,1,4.26-2.42L679,351.33l.58,4.62-14.65,1.83a1.91,1.91,0,0,0-1.57.9,2.62,2.62,0,0,0-.29,1.64,2.39,2.39,0,0,0,.78,1.51,2,2,0,0,0,1.65.49l3.26-.4a12.89,12.89,0,0,1,10,2.9,14.42,14.42,0,0,1,3.45,4.33A16.93,16.93,0,0,1,684,375a17.88,17.88,0,0,1-.23,6.15,13.8,13.8,0,0,1-2.15,5,12.35,12.35,0,0,1-3.79,3.51,13,13,0,0,1-5.14,1.73Z" transform="translate(-309.02 -88.69)"/><path class="e1c4c07b-0847-4641-a225-4f4dd27d0e55" d="M688.1,382.15l-.57-4.62,15.16-1.89a2.58,2.58,0,0,0,1.76-1,3,3,0,0,0,.47-2.3,2.7,2.7,0,0,0-1.11-2.06,2.76,2.76,0,0,0-1.85-.51l-3.32.42a12.81,12.81,0,0,1-5.27-.39,12.27,12.27,0,0,1-4.43-2.38,13.49,13.49,0,0,1-3.26-4.14,16.43,16.43,0,0,1-1.7-5.66,17.2,17.2,0,0,1,.19-5.86,13.27,13.27,0,0,1,2-4.77,11.49,11.49,0,0,1,3.62-3.35,12.8,12.8,0,0,1,5.05-1.64l14.77-1.85.58,4.61-14.78,1.85a8.31,8.31,0,0,0-6,3.34,9.74,9.74,0,0,0-1.52,7.18,11,11,0,0,0,1.18,3.87,8.82,8.82,0,0,0,2.26,2.76,8.46,8.46,0,0,0,3.11,1.57,9.36,9.36,0,0,0,3.63.25l3.13-.39a6,6,0,0,1,2.61.26,8,8,0,0,1,2.41,1.31A8.2,8.2,0,0,1,708.1,369a7.06,7.06,0,0,1,1,2.88,7.89,7.89,0,0,1-1.25,5.64,6.15,6.15,0,0,1-4.51,2.77Zm.91,7.22-.58-4.61,15.23-1.9a10.09,10.09,0,0,0,3.59-1.15,8.27,8.27,0,0,0,2.71-2.37,9.44,9.44,0,0,0,1.56-3.41,12,12,0,0,0,.18-4.36,11.28,11.28,0,0,0-1.31-4.17,9.7,9.7,0,0,0-2.52-3,9.85,9.85,0,0,0-3.32-1.65,9.23,9.23,0,0,0-3.7-.27l-3.12.39a6.27,6.27,0,0,1-4.72-1.26,6.66,6.66,0,0,1-2.52-4.76,7.45,7.45,0,0,1,1-5.23,5.72,5.72,0,0,1,4.26-2.42l14.78-1.84.57,4.61-14.64,1.83a1.93,1.93,0,0,0-1.58.9,2.76,2.76,0,0,0-.29,1.64,2.41,2.41,0,0,0,.79,1.51,1.94,1.94,0,0,0,1.65.49l3.25-.4a12.92,12.92,0,0,1,10,2.9,14.73,14.73,0,0,1,3.45,4.33,16.71,16.71,0,0,1,1.79,5.89,17.89,17.89,0,0,1-.22,6.15,14,14,0,0,1-2.15,5,12.47,12.47,0,0,1-3.79,3.51,12.89,12.89,0,0,1-5.14,1.73Z" transform="translate(-309.02 -88.69)"/><path class="e1c4c07b-0847-4641-a225-4f4dd27d0e55" d="M721.16,385.35l-5.75-45.92,19.92-2.49.58,4.61-15.95,2,4.59,36.69,15.88-2,.58,4.62Zm3-25.34-1.76-14.11,13.79-1.73.58,4.61L727,350l.61,4.89,9.51-1.19.57,4.61Zm2.17,17.35-1.84-14.74L738,360.94l.58,4.61-9.5,1.19.68,5.51,9.77-1.22.57,4.61Z" transform="translate(-309.02 -88.69)"/><path class="e1c4c07b-0847-4641-a225-4f4dd27d0e55" d="M753.41,339.36q-9.88,1.25-8.45,12.74l3.73,29.81-3.91.49-3.73-29.81q-1-7.79,2.15-12.4t9.64-5.44l8.13-1,.58,4.61Zm.91,7.23a3.91,3.91,0,0,0-2.91,1.31,5.16,5.16,0,0,0-.4,3.44l3.73,29.81-4,.5L747,351.84q-.62-4.89,1.25-7.15a8,8,0,0,1,5.45-2.71l8.14-1,.57,4.61Z" transform="translate(-309.02 -88.69)"/><path class="25c2056b-2183-4129-9f4d-96df497debdf" d="M477,216.85s-1.84-4.46-18.67-9.91C424.32,196,389,186,353,189c-10,1-19,8-23,17-6,12,1,25,9,35,4,5,9,9,14,13,19,16,39,27,59.39,39.7" transform="translate(-309.02 -88.69)"/><path class="25c2056b-2183-4129-9f4d-96df497debdf" d="M756.5,186.5s10.94-6.13,15.47-8.57A275.34,275.34,0,0,1,859,148c13-2,28,4,34,16a28,28,0,0,1,0,22c-14,27-37,46-59.38,65.28" transform="translate(-309.02 -88.69)"/><polyline class="e1c4c07b-0847-4641-a225-4f4dd27d0e55" points="170.21 272.56 200.98 268.31 197.98 258.31 184.95 259.97"/><path class="f1934313-f3ce-42fe-817e-2f188549f2be" d="M805,376" transform="translate(-309.02 -88.69)"/><line class="3f472589-cc45-4586-8ca9-4e06a6eef746" x1="463.73" y1="250.64" x2="460.24" y2="251.08"/><path class="f1934313-f3ce-42fe-817e-2f188549f2be" d="M773.94,357.34" transform="translate(-309.02 -88.69)"/><path class="68eae354-22ae-48d5-a9b5-7722af836e40" d="M829.23,328.86l2.45,13.44a1.6,1.6,0,0,0,.93,1.18l12.46,5.6a1.61,1.61,0,0,1,.11,2.89l-12,6.49a1.62,1.62,0,0,0-.84,1.24l-1.47,13.59a1.61,1.61,0,0,1-2.71,1l-9.89-9.43a1.59,1.59,0,0,0-1.44-.41l-13.38,2.8a1.61,1.61,0,0,1-1.78-2.28l5.91-12.32a1.62,1.62,0,0,0,0-1.5l-6.79-11.85a1.61,1.61,0,0,1,1.61-2.4l13.54,1.82a1.6,1.6,0,0,0,1.41-.52l9.18-10.12A1.61,1.61,0,0,1,829.23,328.86Z" transform="translate(-309.02 -88.69)"/><polyline class="2921ca91-d202-426f-91af-1c190a92eb30" points="466.22 250.2 472.06 249.46 485.98 255.31"/><line class="2921ca91-d202-426f-91af-1c190a92eb30" x1="466.22" y1="250.2" x2="462.73" y2="250.64"/><polyline class="2921ca91-d202-426f-91af-1c190a92eb30" points="469.14 283.59 476.98 282.6 485.98 275.31"/><line class="2921ca91-d202-426f-91af-1c190a92eb30" x1="454.33" y1="285.46" x2="469.14" y2="283.59"/><line class="3f472589-cc45-4586-8ca9-4e06a6eef746" x1="449.91" y1="286.02" x2="454.33" y2="285.46"/><polyline class="6b634ef8-2249-4c8e-bed4-b1337cae8d6c" points="454.32 269.37 467.92 267.65 485.98 265.31"/><line class="f1934313-f3ce-42fe-817e-2f188549f2be" x1="448.48" y1="270.11" x2="454.32" y2="269.37"/><path class="e1c4c07b-0847-4641-a225-4f4dd27d0e55" d="M452.71,367.13q-8.73,1.26-13-4a10.53,10.53,0,0,1-2.3-5.17,12.66,12.66,0,0,1,.88-6.38l18.94-49.11-35.69,5.13,4.37-11.31,128.68-18.5-4.35,11.31-53.38,7.68-19.44,50.4q-1,2.56.12,4.07a3.42,3.42,0,0,0,3.52,1.14L497.63,350l-4.35,11.31Z" transform="translate(-309.02 -88.69)"/><path class="e1c4c07b-0847-4641-a225-4f4dd27d0e55" d="M562,301.56l1.4-1.35,1.4-1.32,38.59-6.38-15.86,41.08a6.39,6.39,0,0,0-.47,2.13,3.14,3.14,0,0,0,.56,1.95c.72,1,1.9,1.37,3.55,1.13l11.11-1.6-4.37,11.32-44.07,6.33-4.57-3.51q-7.18,6.35-20.75,8.45-12.49,1.93-20.87-1.48-10.74-4.37-12.56-17.19-2.26-15.72,14.42-27.69,14.19-10.19,33.88-13Q554.21,298.85,562,301.56Zm-14.28,38.06c.07-.14.79-2,2.18-5.66l6.55-17q1.2-3.09-.27-5a4.36,4.36,0,0,0-4.37-1.41q-5.7.8-7.87,6.53c-.5,1.27-1.23,3.17-2.21,5.69l-6.55,17q-1.17,3.09.27,5c1,1.24,2.42,1.71,4.38,1.43a9.4,9.4,0,0,0,4.93-2.12A10.79,10.79,0,0,0,547.72,339.62Z" transform="translate(-309.02 -88.69)"/><path class="e1c4c07b-0847-4641-a225-4f4dd27d0e55" d="M653,290.37q8.18-8.89,15.85-10.31,14.31-2.65,16.3,10.61a18.43,18.43,0,0,1-2.92,12.52q-4.31,7-11.68,8.08c-3.94.57-7.2,0-9.81-1.75s-4.6-4.71-6-8.93a24.23,24.23,0,0,0-3.68,6.68L637.32,343l-39.9,5.74,22.19-57.55,33.08-5.56Z" transform="translate(-309.02 -88.69)"/><path class="e1c4c07b-0847-4641-a225-4f4dd27d0e55" d="M693.46,334.64q-8.78,1.26-13-4a10.61,10.61,0,0,1-2.31-5.17,12.61,12.61,0,0,1,.88-6.38l15-38.87,40-6.61-15.83,41.08a4.94,4.94,0,0,0-.36,3.07,3,3,0,0,0,.48,1,3.43,3.43,0,0,0,3.52,1.14l11.08-1.6-4.34,11.31Z" transform="translate(-309.02 -88.69)"/><path class="e1c4c07b-0847-4641-a225-4f4dd27d0e55" d="M802.83,319.22q-10.26,1.48-14-2.59a7.5,7.5,0,0,1-1.9-4.13q-.52-3.6,1.52-8.85l8.11-21a3.09,3.09,0,0,0-.82-3.71,4.63,4.63,0,0,0-3.88-1.06,9.88,9.88,0,0,0-8.37,6.68L768.21,324.2l-39.9,5.73,22.19-57.54,32.69-5.51.37,2.19.42,2.18a56.46,56.46,0,0,1,24.49-9.64q13.85-2.08,21.43,3.87a13.12,13.12,0,0,1,5,8.75,21,21,0,0,1-1.64,10.4l-5.66,14.62q-1,2.56.12,4.08c.71,1,1.9,1.36,3.55,1.13l11.08-1.6L838,314.17Z" transform="translate(-309.02 -88.69)"/><path class="b776c1dd-e717-4fb3-b87d-3500a2de5e21" d="M717.48,226.33l5.2,12.64a1.62,1.62,0,0,0,1.15,1l13.36,2.88a1.61,1.61,0,0,1,.71,2.8l-10.41,8.85a1.6,1.6,0,0,0-.56,1.4l1.39,13.59a1.61,1.61,0,0,1-2.45,1.53l-11.64-7.16a1.58,1.58,0,0,0-1.49-.1l-12.5,5.52a1.61,1.61,0,0,1-2.22-1.85l3.22-13.28a1.62,1.62,0,0,0-.37-1.46l-9.11-10.18a1.61,1.61,0,0,1,1.08-2.68l13.62-1a1.6,1.6,0,0,0,1.27-.8l6.87-11.81A1.61,1.61,0,0,1,717.48,226.33Z" transform="translate(-309.02 -88.69)"/><path class="68eae354-22ae-48d5-a9b5-7722af836e40" d="M447.83,377.37l.95,13.63a1.63,1.63,0,0,1-.6,1.38l-10.69,8.51a1.61,1.61,0,0,0,.61,2.82L451.36,407a1.61,1.61,0,0,1,1.12,1l4.79,12.8a1.62,1.62,0,0,0,2.88.29l7.24-11.59a1.64,1.64,0,0,1,1.3-.76l13.65-.6a1.61,1.61,0,0,0,1.16-2.65l-8.78-10.46a1.63,1.63,0,0,1-.32-1.47l3.65-13.17a1.61,1.61,0,0,0-2.16-1.92l-12.67,5.11a1.58,1.58,0,0,1-1.49-.15l-11.4-7.53A1.61,1.61,0,0,0,447.83,377.37Z" transform="translate(-309.02 -88.69)"/><polyline class="2921ca91-d202-426f-91af-1c190a92eb30" points="193.6 285.02 187.76 285.76 175.72 294.87"/><line class="3f472589-cc45-4586-8ca9-4e06a6eef746" x1="210.66" y1="283.59" x2="213.98" y2="283.31"/><polyline class="2921ca91-d202-426f-91af-1c190a92eb30" points="197.09 284.59 193.6 285.02 210.66 283.59"/><polyline class="2921ca91-d202-426f-91af-1c190a92eb30" points="199.04 318.1 191.2 319.08 180.68 314.25"/><line class="2921ca91-d202-426f-91af-1c190a92eb30" x1="213.86" y1="316.24" x2="199.04" y2="318.1"/><line class="3f472589-cc45-4586-8ca9-4e06a6eef746" x1="218.28" y1="315.69" x2="213.86" y2="316.24"/><polyline class="6b634ef8-2249-4c8e-bed4-b1337cae8d6c" points="209.88 300.65 196.28 302.36 178.2 304.56"/><line class="f1934313-f3ce-42fe-817e-2f188549f2be" x1="215.72" y1="299.92" x2="209.88" y2="300.65"/><path class="45c2e033-f979-46a5-8d58-b78d1b3e319c" d="M475.82,102s-.32.86-.94,2.17c0-1.45.11-2.36.11-2.36-6.2,15.34-17.87,16.18-17.87,16.18,3,1.14,4.79,4.07,5.87,7.76,3.08,10.49.19,27.19.19,27.19a30.8,30.8,0,0,1,1.29-3.68,31.89,31.89,0,0,1-.46,3.87s4.73-16.27,12.09-24.35c2.59-2.84,5.52-4.67,8.68-4.4C484.78,124.41,474.66,118.54,475.82,102Z" transform="translate(-309.02 -88.69)"/><path class="45c2e033-f979-46a5-8d58-b78d1b3e319c" d="M793.82,488s-.32.86-.94,2.17c0-1.45.11-2.36.11-2.36-6.2,15.34-17.87,16.18-17.87,16.18,3,1.14,4.79,4.07,5.87,7.76,3.08,10.49.19,27.19.19,27.19a30.8,30.8,0,0,1,1.29-3.68,31.89,31.89,0,0,1-.46,3.87s4.73-16.27,12.09-24.35c2.59-2.84,5.52-4.67,8.68-4.4C802.78,510.41,792.66,504.54,793.82,488Z" transform="translate(-309.02 -88.69)"/><path class="45c2e033-f979-46a5-8d58-b78d1b3e319c" d="M445.37,146.86s.05.52.06,1.35c-.36-.76-.54-1.24-.54-1.24.67,9.42-5.11,12.77-5.11,12.77,1.8-.16,3.47.89,5,2.51,4.21,4.61,6.9,13.89,6.9,13.89a20.49,20.49,0,0,1-.26-2.21,18.64,18.64,0,0,1,.74,2.1s-1.65-9.53.1-15.51c.62-2.11,1.66-3.78,3.35-4.43C455.56,156.09,448.9,155.61,445.37,146.86Z" transform="translate(-309.02 -88.69)"/><circle class="45c2e033-f979-46a5-8d58-b78d1b3e319c" cx="136.98" cy="41.31" r="3"/><circle class="45c2e033-f979-46a5-8d58-b78d1b3e319c" cx="449.48" cy="433.81" r="3"/><circle class="45c2e033-f979-46a5-8d58-b78d1b3e319c" cx="455.98" cy="458.31" r="7.5"/></g></svg>